<svg width="249" height="249" viewBox="0 0 249 248.998" xmlns="http://www.w3.org/2000/svg" xmlns:xlink="http://www.w3.org/1999/xlink" xml:space="preserve" overflow="hidden"><g transform="matrix(1.25 0 0 -1.25 -509.62 532.02)"><g transform="matrix(0.99194 0 0 0.99194 5.5301 3.706)"><ellipse cx="506.17" cy="-324.89" rx="97.819" ry="97.819" fill="#FFFFFF" transform="scale(1 -1)"/><path d="M124.83 1.5488 118.576 1.69138 112.328 2.19138 109.277 2.50974 109.234 2.5156 106.162 2.94333 106.102 2.94919 100.023 4.05859 94.0273 5.42769 88.1308 7.10349 82.3886 9.08199 76.7714 11.3066 71.2773 13.791 65.9199 16.5547 60.7265 19.5293 55.6972 22.7598 50.8242 26.1993 46.1191 29.8985 41.6347 33.8106 37.2988 37.9278 33.2109 42.2364 29.2871 46.7247 25.6269 51.4239 22.1542 56.2989 18.9276 61.2774 15.9159 66.4922 13.1796 71.8438 10.664 77.3731 8.4824 83.0059 6.5078 88.7325 4.8223 94.629 3.42 100.623 2.3497 106.695 1.55673 112.906 1.08993 119.182 0.90829 125.572 1.08993 131.92 1.55673 138.189 2.3497 144.367 3.42 150.428 4.8223 156.433 6.5078 162.326 8.4824 168.057 10.664 173.701 13.1855 179.185 15.916 184.533 18.9219 189.736 22.1543 194.76 25.627 199.629 29.2872 204.338 33.2052 208.822 37.299 213.168 41.6349 217.252 46.1193 221.164 50.8244 224.83 55.6974 228.302 60.7091 231.523 65.9239 234.545 71.2774 237.277 76.7715 239.783 82.4004 241.969 88.1309 243.947 94.0274 245.629 100.023 247.037 106.129 248.113 112.295 248.898 118.576 249.371 124.891 249.547 131.281 249.371 137.551 248.898 143.762 248.113 149.838 247.037 155.834 245.629 161.719 243.943 167.451 241.968 173.09 239.783 178.613 237.277 183.965 234.55 189.174 231.523 194.164 228.291 199.027 224.83 203.736 221.164 208.221 217.252 212.523 213.168 216.656 208.822 220.564 204.343 224.268 199.629 227.707 194.76 230.939 189.73 233.912 184.537 236.682 179.185 239.16 173.689 241.375 168.062 243.348 162.326 245.041 156.433 246.398 150.439 247.519 144.367 248.265 138.189 248.771 131.92 248.908 125.572 248.771 119.181 248.277 112.933 247.953 109.846 247.947 109.789 247.519 106.728 247.508 106.668 246.398 100.629 245.041 94.6327 243.347 88.7323 241.387 83.0283 239.167 77.4013 236.688 71.8779 233.919 66.5205 230.94 61.3154 227.716 56.3369 224.268 51.4521 220.571 46.747 216.659 42.2587 212.532 37.956 208.227 33.8388 203.749 29.9267 199.04 26.2333 194.161 22.788 189.18 19.5614 183.971 16.579 178.624 13.8192 173.096 11.3348 167.469 9.11019 161.727 7.13749 155.825 5.45589 149.846 4.08679 143.79 2.97739 140.723 2.5477 140.678 2.54379 137.575 2.22543 137.551 2.21957 131.282 1.71957 124.897 1.57699 124.837 1.57699ZM124.891 4.3515 124.961 7.1542 124.898 7.15615 130.996 7.29677 137.023 7.78115 139.986 8.08779 142.892 8.49013 148.713 9.56043 154.428 10.8631 160.039 12.4686 165.517 14.3534 170.902 16.4804 176.183 18.8417 181.283 21.4862 186.252 24.326 191.01 27.41 195.681 30.7069 200.154 34.2245 204.435 37.955 208.556 41.9003 212.502 46.0175 216.234 50.2987 219.761 54.7831 223.052 59.4472 226.13 64.2128 228.976 69.1737 231.627 74.2792 233.984 79.5546 236.111 84.9413 237.996 90.4257 239.599 96.0312 240.902 101.756 241.963 107.564 242.381 110.479 242.687 113.439 243.156 119.469 243.304 125.574 243.156 131.635 242.687 137.631 241.963 143.527 240.902 149.303 239.599 155.033 237.996 160.635 236.111 166.119 233.984 171.51 231.627 176.746 228.988 181.852 226.13 186.819 223.052 191.623 219.761 196.278 216.234 200.766 212.502 205.047 208.556 209.192 204.441 213.104 200.166 216.84 195.681 220.324 191.01 223.66 186.24 226.742 181.283 229.617 176.183 232.227 170.914 234.613 165.517 236.707 160.039 238.592 154.422 240.201 148.701 241.537 142.92 242.571 136.996 243.322 130.996 243.768 124.891 243.938 118.861 243.768 112.861 243.322 106.969 242.571 101.156 241.537 95.4354 240.201 89.8241 238.592 84.328 236.707 78.9491 234.613 73.7167 232.227 68.6112 229.617 63.6444 226.738 58.8456 223.654 54.1815 220.324 49.6913 216.84 45.4101 213.098 41.2675 209.192 37.3652 205.059 33.623 200.772 30.1269 196.278 26.7968 191.612 23.7206 186.819 20.8456 181.852 18.2362 176.746 15.8339 171.51 13.7519 166.129 11.8671 160.635 10.2558 155.029 8.9218 149.303 7.8984 143.527 7.14059 137.631 6.70114 131.635 6.52536 125.574 6.70114 119.469 7.14059 113.467 7.8984 107.537 8.9218 101.756 10.2558 96.041 11.8671 90.4258 13.7519 84.9356 15.8339 79.5547 18.2421 74.2852 20.8456 69.1739 23.7147 64.2188 26.7967 59.4532 30.1268 54.7833 33.6229 50.2931 37.3592 46.0119 41.2615 41.9006 45.4158 37.9611 49.6912 34.2248 54.1814 30.6955 58.8357 27.4103 63.6384 24.3263 68.6111 21.4865 73.7166 18.842 78.9549 16.4807 84.3397 14.3479 89.8241 12.469 95.4296 10.8635 101.156 9.56083 106.996 8.49053 109.91 8.08819 112.844 7.78155 118.867 7.29717 124.898 7.15655 124.834 7.1546 124.89 4.3519ZM124.891 10.0722 119.049 10.2167 113.207 10.6718 107.441 11.3808 101.744 12.4199 96.1874 13.7051 90.7186 15.2617 88.0604 16.1172 88.0331 16.1231 85.3729 17.084 85.3455 17.0899 80.0857 19.1504 74.9919 21.4688 70.0075 24.0313 65.1657 26.8106 60.4665 29.834 55.945 33.043 51.5602 36.4942 47.3551 40.1309 43.3375 43.9668 39.525 47.9629 35.8863 52.2051 32.4742 56.5469 29.2379 61.1016 26.2477 65.7618 23.4293 70.6095 20.9 75.5997 18.5484 80.7208 16.482 85.9513 14.6695 91.299 13.1031 96.756 11.7847 102.346 10.7827 108.016 10.0366 113.809 9.56397 119.65 9.43702 125.607 9.56397 131.514 10.0366 137.367 10.7827 143.115 11.7847 148.824 13.1031 154.354 14.6695 159.832 16.4761 165.178 18.5542 170.449 20.8999 175.531 23.4292 180.521 26.2476 185.369 29.2378 190.062 32.4683 194.584 35.8863 198.965 39.525 203.156 43.3375 207.191 47.3668 210.998 51.5641 214.631 55.945 218.055 60.4567 221.291 65.1657 224.287 70.0075 227.105 74.9919 229.629 80.0798 231.975 85.3552 234.041 90.697 235.859 96.1755 237.42 101.744 238.744 107.447 239.75 113.201 240.486 119.049 240.949 124.933 241.098 130.879 240.949 136.715 240.486 142.519 239.75 148.189 238.744 153.779 237.42 159.23 235.859 164.578 234.041 169.808 231.975 174.929 229.629 179.92 227.1 184.761 224.287 189.433 221.297 193.988 218.055 198.324 214.631 202.566 210.998 206.562 207.191 210.398 203.168 214.029 198.975 217.48 194.584 220.695 190.063 223.718 185.357 226.509 180.522 229.064 175.531 231.379 170.449 233.439 165.19 234.39 162.529 234.406 162.502 235.254 159.848 235.269 159.82 236.824 154.348 238.105 148.824 239.148 143.115 239.863 137.35 240.32 131.514 240.462 125.608 240.32 119.655 239.863 113.819 239.148 108.016 238.111 102.368 237.554 99.5805 237.55 99.5375 236.826 96.7563 236.826 96.7348 235.269 91.3207 234.418 88.6332 234.406 88.5961 233.451 85.9633 233.439 85.9419 231.379 80.7271 229.064 75.6001 226.509 70.6099 223.718 65.7622 220.695 61.102 217.48 56.5473 214.029 52.1996 210.398 47.9633 206.556 43.9672 202.566 40.1215 198.33 36.4945 193.994 33.0433 189.422 29.8343 184.761 26.8109 179.92 24.0316 174.929 21.4691 169.802 19.1507 164.588 17.0902 161.972 16.139 161.933 16.1234 159.236 15.2718 159.213 15.2601 153.8 13.7054 151.047 12.9964 151.004 12.9905 148.173 12.4182 148.167 12.4143 142.519 11.3811 136.716 10.6722 130.88 10.2151 124.933 10.0725 124.89 10.0725ZM124.934 11.8261 124.967 13.58 124.93 13.58 130.699 13.7167 136.363 14.162 141.986 14.8534 147.492 15.8593 150.213 16.4101 152.889 17.0898 158.197 18.623 160.803 19.4492 163.342 20.3769 168.436 22.3828 173.402 24.6308 178.244 27.1152 182.938 29.8125 187.471 32.7461 191.883 35.8574 196.094 39.2051 200.209 42.7266 204.078 46.4532 207.809 50.3204 211.332 54.4376 214.678 58.6466 217.783 63.0704 220.723 67.5938 223.416 72.2872 225.906 77.1212 228.148 82.09 230.158 87.1896 231.088 89.7287 231.912 92.3342 233.44 97.6643 234.133 100.325 234.666 103.028 235.682 108.539 236.369 114.172 236.814 119.838 236.951 125.608 236.814 131.328 236.369 137.006 235.682 142.594 234.67 148.112 233.434 153.463 231.912 158.811 231.082 161.371 230.158 163.959 228.148 169.082 225.906 174.006 223.416 178.846 220.723 183.539 217.783 188.106 214.678 192.492 211.332 196.735 207.809 200.807 204.078 204.713 200.215 208.401 196.1 211.924 191.883 215.242 187.461 218.387 182.937 221.299 178.244 224.018 173.414 226.469 168.435 228.75 163.357 230.75 158.176 232.514 152.895 234.031 147.48 235.311 141.986 236.279 136.363 236.998 130.693 237.449 124.934 237.586 119.234 237.449 113.57 236.998 107.975 236.279 102.453 235.311 97.0665 234.031 91.752 232.514 86.5645 230.75 81.4551 228.75 76.5254 226.469 71.6836 224.018 66.9902 221.293 62.4297 218.387 58.0449 215.242 53.791 211.924 49.7187 208.401 45.8222 204.713 42.1249 200.807 38.6073 196.741 35.2831 192.493 32.1444 188.106 29.2479 183.539 26.5116 178.846 24.0546 174.006 21.7753 169.077 19.7851 163.977 18.0156 158.795 16.4941 153.463 15.2187 148.112 14.2519 142.594 13.5214 136.995 13.0761 131.329 12.9433 125.608 13.0761 119.838 13.5214 114.178 14.2519 108.539 15.2245 103.049 16.494 97.6371 18.0155 92.35 19.785 87.1684 21.7811 82.102 24.0604 77.1215 26.5116 72.2875 29.244 67.5941 32.1444 63.0707 35.2831 58.6469 38.6073 54.4321 42.1249 50.3208 45.8222 46.4536 49.7245 42.727 53.7909 39.2055 58.0448 35.852 62.4296 32.7465 66.9901 29.8129 71.6835 27.1156 76.5253 24.6312 81.455 22.3832 86.582 20.3773 89.1582 19.4496 91.7246 18.6234 97.0664 17.1019 102.457 15.8597 107.975 14.8538 113.564 14.1624 119.234 13.7171 124.93 13.5804 124.891 13.5804 124.934 11.8265ZM132.721 15.8573 132.017 15.8964 131.32 15.9667 130.682 16.0995 130.088 16.3182 129.527 16.5604 128.994 16.8788 128.545 17.2264 128.088 17.6444 127.697 18.0995 127.351 18.6268 127.066 19.1874 126.818 19.8202 126.621 20.4901 126.478 21.1874 126.363 21.9628 126.336 23.0175 126.439 23.9569 126.682 24.7987 127.033 25.5741 127.527 26.2714 128.193 26.8749 128.934 27.3983 129.842 27.8202 134.502 29.7108 134.82 29.8866 135.133 30.0956 135.381 30.3495 135.596 30.6229 135.76 30.9374 135.875 31.2948 135.947 31.6405 135.947 31.992 135.836 32.5858 135.596 33.1131 135.27 33.537 134.854 33.8885 134.297 34.1346 133.666 34.3045 132.93 34.3768 132.084 34.3436 131.32 34.2069 130.615 33.9862 130.006 33.6795 129.561 33.2499 129.209 32.7284 128.961 32.1346 128.857 31.3983 128.824 30.5897 125.357 30.3104 125.357 31.1502 125.385 31.953 125.488 32.6952 125.631 33.3924 125.84 34.0643 126.121 34.6561 126.439 35.2167 126.818 35.7069 127.279 36.1678 127.764 36.5858 128.336 36.9374 128.934 37.2499 129.588 37.4979 130.297 37.7069 131.066 37.8436 131.902 37.9549 132.676 37.9921 133.451 37.9921 134.154 37.8885 134.853 37.7459 135.484 37.537 136.09 37.2889 136.639 36.9706 137.133 36.5858 137.629 36.1678 138.018 35.6737 138.402 35.1464 138.711 34.5585 138.957 33.9198 139.162 33.2225 139.342 32.4862 139.42 31.7108 139.453 30.4803 139.311 29.4686 139.205 29.0077 138.99 28.5526 138.781 28.1346 138.496 27.7498 137.98 27.1502 137.375 26.6658 136.754 26.2713 135.975 25.8924 131.066 23.9569 130.715 23.8202 130.467 23.6112 130.227 23.3632 130.006 23.1171 129.875 22.8026 129.803 22.4843 129.736 22.1386 129.769 21.787 129.875 21.2264 130.045 20.7382 130.369 20.3534 130.748 20.0019 131.209 19.7538 131.769 19.5722 132.369 19.5058 133.023 19.5058 133.766 19.6054 134.396 19.8202 134.957 20.0995 135.381 20.4901 135.726 20.9784 135.975 21.5331 136.123 22.2108 136.187 22.9413 139.623 23.2597 139.656 22.5233 139.623 21.787 139.523 21.0897 139.387 20.4179 139.162 19.787 138.893 19.2264 138.568 18.6659 138.221 18.1718 137.76 17.7206 137.314 17.2968 136.787 16.9511 136.187 16.6268 135.596 16.3846 134.924 16.1698 134.294 16.0018 133.518 15.8983 132.788 15.8592ZM108.342 17.1913 108.166 17.2304 108.166 17.2265 107.562 17.2597 99.8201 18.5234 103.154 39.2184 108.166 38.4488 108.166 38.4468 110.865 37.9917 111.601 37.816 112.271 37.5738 112.898 37.2164 113.459 36.7613 113.98 36.232 114.437 35.6402 114.865 34.941 115.213 34.2046 115.498 33.3921 115.74 32.4859 115.916 31.5347 116.025 30.5503 116.092 29.5015 116.052 28.4175 115.986 27.2534 115.804 26.0991 115.595 24.978 115.355 23.9624 115.041 22.9781 114.689 22.0601 114.304 21.23 113.843 20.4507 113.386 19.7847 112.859 19.1538 112.299 18.6265 111.705 18.1695 111.113 17.7905 110.447 17.5093 109.777 17.3296 109.074 17.23 108.342 17.1909ZM144.541 17.789 143.589 21.3613 148.634 22.7011 144.289 39.3961 147.8 40.3043 152.146 23.6153 157.152 24.9122 158.076 21.295 144.541 17.7891ZM93.7846 20.0663 81.8216 24.3085 88.806 44.0975 101.183 39.7069 99.9174 36.2069 90.9057 39.3944 89.1147 34.2714 97.0444 31.4648 95.8139 27.9902 87.8881 30.7656 86.4213 26.623 95.0111 23.5781 93.7845 20.0664ZM108.023 20.9139 108.165 20.9413 108.165 20.9393 108.446 20.9393 108.831 21.0115 109.216 21.1541 109.568 21.3299 109.913 21.5779 110.232 21.8572 110.513 22.2088 111.073 23.0506 111.528 24.1385 111.909 25.3963 112.194 26.8748 112.37 28.4197 112.409 29.8201 112.298 31.0838 112.062 32.1346 111.677 33.0467 111.419 33.4256 111.15 33.744 110.831 33.9862 110.48 34.2381 110.128 34.3807 109.749 34.4803 108.165 34.7596 108.165 34.7616 106.062 35.08 103.886 21.535 107.595 20.9412 108.023 20.9139ZM167.011 24.908 164.208 28.1658 152.745 41.4958 156.212 43.072 159.053 39.6365 164.208 41.99 164.208 41.988 164.835 42.2673 164.208 45.8454 164.065 46.6189 164.208 46.6853 167.643 48.2693 170.835 26.6653 167.011 24.9075ZM77.4426 26.2049 65.1986 32.9764 66.9896 36.2284 71.5521 33.7128 79.8939 48.8298 83.0853 47.072 74.7064 31.953 79.2337 29.4315 77.4427 26.2049ZM166.951 30.0623 165.439 38.5135 164.208 37.992 164.208 37.9881 161.478 36.7303 164.208 33.3944 164.208 33.3924 166.951 30.0623ZM179.322 30.9744 177.228 34.0291 181.531 36.9705 171.786 51.2475 174.804 53.2846 184.513 39.0096 188.788 41.9217 190.906 38.8651 179.322 30.9745ZM62.2516 35.1844 59.3066 37.2874 71.4726 54.3674 74.4236 52.2684 62.2516 35.1844ZM55.1032 40.2684 52.6462 42.5829 62.6091 53.3209 47.6231 47.2154 44.8204 49.8131 59.1034 65.2061 61.5917 62.8936 51.3887 51.9136 66.7427 58.1245 69.3755 55.6675 55.1045 40.2695ZM124.826 40.7977 120.619 40.9032 120.59 40.9071 116.375 41.2215 116.338 41.2254 112.096 41.7587 107.957 42.5067 103.891 43.4403 99.8946 44.5731 95.9708 45.8973 92.1192 47.4246 88.4044 49.1062 84.7286 50.9968 81.211 53.03 77.7813 55.239 74.4688 57.5906 71.2872 60.0926 68.2208 62.7293 65.2638 65.5438 62.4826 68.4715 59.8068 71.5379 57.3127 74.7098 54.9553 78.0282 52.7834 81.452 50.7502 84.9852 48.8654 88.618 47.1779 92.3602 45.6506 96.1844 44.3264 100.114 43.1897 104.11 42.26 108.21 41.5081 112.341 40.969 116.579 40.6233 120.788 40.6116 120.833 40.512 125.145 40.512 125.184 40.6116 129.466 40.6116 129.503 40.969 133.72 40.969 133.747 41.5061 137.989 42.26 142.122 43.1878 146.188 44.3323 150.149 45.6507 154.073 47.178 157.93 48.8655 161.635 50.7503 165.311 52.7835 168.835 54.9534 172.257 57.3108 175.577 59.8069 178.758 62.4827 181.813 65.2581 184.776 68.219 187.561 71.2874 190.227 74.4632 192.727 77.7874 195.085 81.2112 197.26 84.7327 199.284 88.4046 201.184 92.1194 202.862 95.971 204.399 99.8948 205.713 103.891 206.856 107.963 207.786 112.094 208.532 116.332 209.065 120.547 209.423 120.586 209.423 124.828 209.522 124.862 209.522 129.174 209.423 129.213 209.423 133.434 209.071 133.461 209.065 137.703 208.532 141.842 207.786 145.936 206.856 149.93 205.713 153.866 204.401 157.68 202.862 161.422 201.186 165.059 199.284 168.588 197.262 172.016 195.086 175.336 192.733 178.518 190.227 181.573 187.563 184.496 184.776 187.315 181.815 189.953 178.752 192.453 175.582 194.801 172.264 197.01 168.834 199.047 165.311 200.934 161.635 202.616 157.932 204.143 154.078 205.473 150.151 206.61 146.188 207.533 142.121 208.291 137.989 208.824 133.741 209.137 129.538 209.143 129.498 209.247 125.211 209.247 125.184 209.143 120.872 209.143 120.832 208.834 116.623 208.824 116.59 208.291 112.342 207.531 108.209 206.613 104.11 205.471 100.114 204.141 96.1861 202.613 92.3658 200.932 88.6178 199.047 84.9868 197.008 81.4517 194.799 78.0278 192.453 74.7094 189.953 71.5434 187.315 68.4732 184.496 65.5493 181.572 62.729 178.506 60.0864 175.334 57.5924 172.016 55.2388 168.592 53.0299 165.059 50.9967 161.42 49.106 157.678 47.4302 153.863 45.897 149.93 44.5728 145.934 43.442 141.84 42.5064 137.703 41.7603 133.443 41.2271 129.244 40.9068 129.213 40.9029 124.893 40.7974 124.859 40.7974 124.828 40.7974 124.861 42.1997 124.895 43.6001 124.861 43.6001 129.07 43.7056 133.176 44.0181 137.285 44.5357 141.281 45.2603 145.242 46.1568 149.102 47.2545 152.893 48.5357 156.58 50.0142 160.201 51.6353 163.713 53.4595 167.137 55.4322 170.445 57.565 173.66 59.8404 176.721 62.2525 179.688 64.8072 182.512 67.5338 185.238 70.358 187.783 73.3248 190.205 76.3912 192.481 79.6002 194.619 82.9147 196.58 86.3268 198.41 89.8444 200.031 93.4596 201.504 97.153 202.797 100.94 203.889 104.803 204.785 108.77 205.51 112.766 206.034 116.866 206.34 120.969 206.446 125.184 206.34 129.356 206.034 133.456 205.51 137.561 204.785 141.555 203.889 145.491 202.797 149.321 201.504 153.112 200.031 156.833 198.41 160.42 196.58 163.977 194.619 167.377 192.481 170.692 190.205 173.901 187.783 176.973 185.227 179.924 182.512 182.794 179.688 185.491 176.721 188.069 173.655 190.481 170.451 192.756 167.137 194.866 163.713 196.823 160.207 198.653 156.58 200.28 152.893 201.768 149.102 203.032 145.242 204.143 141.276 205.032 137.285 205.758 133.17 206.274 129.071 206.616 124.862 206.719 120.735 206.616 116.635 206.274 112.524 205.758 108.518 205.032 104.594 204.143 100.725 203.032 96.9397 201.768 93.2073 200.28 89.635 198.659 86.0686 196.823 82.6565 194.866 79.3479 192.757 76.1448 190.481 73.0784 188.069 70.1116 185.481 67.2522 182.794 64.5608 179.936 61.967 176.962 59.5588 173.907 57.2893 170.698 55.1799 167.378 53.219 163.977 51.3889 160.421 49.7678 156.833 48.2893 153.112 47.0022 149.321 45.9084 145.491 45.008 141.561 44.2834 137.561 43.7599 133.456 43.426 129.356 43.3146 125.184 43.426 120.981 43.7599 116.876 44.2834 112.766 45.008 108.77 45.9084 104.803 47.0022 100.94 48.2893 97.153 49.7678 93.4655 51.3889 89.8385 53.219 86.3268 55.1799 82.9088 57.2854 79.6002 59.5588 76.3912 61.9729 73.3248 64.5608 70.358 67.2522 67.5338 70.1116 64.8131 73.0725 62.2526 76.1448 59.8444 79.3538 57.5651 82.6624 55.4323 86.0745 53.4596 89.635 51.6354 93.2073 50.0143 96.9397 48.5358 100.725 47.2546 104.594 46.1569 108.518 45.2604 112.518 44.5358 116.623 44.0182 120.723 43.7057 124.862 43.6002 124.828 43.6002 124.862 42.1998 124.86 42.1998 124.826 40.7975ZM194.519 41.8797 180.001 57.0357 189.501 66.0826 192.058 63.3834 185.161 56.7838 188.904 52.86 194.976 58.6803 197.536 56.0201 191.464 50.1998 194.519 47.0084 201.109 53.3209 203.669 50.6178 194.519 41.8795ZM121.949 49.8113 121.322 49.8504 120.762 49.95 120.271 50.0926 119.85 50.3016 119.498 50.5476 119.223 50.7898 118.971 51.1043 118.762 51.3953 118.52 51.9832 118.371 52.4773 118.305 52.9656 116.377 52.9656 115.184 53.2859 114.199 53.6746 113.43 54.1258 112.805 54.6531 112.305 55.2078 111.984 55.7683 111.748 56.3348 111.605 56.9285 111.568 57.4891 111.568 58.0164 111.711 58.9285 111.887 59.5613 111.984 59.7703 114.414 58.4402 115.25 58.407 116.129 58.4773 117.068 58.5828 117.459 58.5105 117.777 58.5105 118.414 58.5828 118.938 58.825 119.393 59.1043 119.777 59.4558 120.02 59.7371 120.272 60.0164 120.619 60.2254 120.832 60.4734 120.893 60.7918 120.932 61.1707 120.832 61.5945 120.69 62.0496 120.235 62.9949 119.68 63.8738 119.147 64.6492 118.553 65.3797 120.508 66.8582 120.762 66.9636 121.004 67.034 121.602 67.1004 122.201 67.034 122.795 66.8914 123.74 66.5398 124.162 66.364 124.444 66.0183 124.723 65.7644 125.037 65.6004 125.389 65.5242 125.74 65.5242 126.098 65.5554 126.762 65.8035 127.356 66.1218 127.807 66.4734 128.262 66.8582 128.613 67.2058 128.967 67.4851 129.291 67.7 129.565 67.8367 129.846 67.9422 130.119 67.9793 130.576 67.9129 130.928 67.7644 131.213 67.5574 131.412 67.3484 131.774 67.034 132.022 66.6824 132.406 65.9793 132.582 65.3797 132.649 65.1395 132.649 54.4384 132.615 53.7021 132.506 53.0381 132.33 52.4775 132.121 51.9502 131.846 51.5263 131.561 51.1416 131.246 50.8291 130.928 50.5478 130.301 50.1631 129.774 49.9502 129.246 49.8115 121.949 49.8115ZM40.6562 54.5086 38.4355 57.4871 50.0195 66.0496 50.1621 66.1532 50.6523 66.6082 51.0371 67.1375 51.2773 67.6981 51.4531 68.2957 51.4804 68.9286 51.3886 69.5223 51.1797 70.159 50.8222 70.7137 50.3281 71.2411 49.8105 71.6258 49.207 71.8739 48.6133 72.0106 47.9531 72.0106 47.2773 71.8739 46.6171 71.5887 45.9531 71.1707 45.8105 71.0653 34.5505 62.7176 32.3415 65.6961 43.5625 73.9734 43.9082 74.2585 44.5781 74.7156 45.25 75.1003 45.9141 75.3738 46.5742 75.6277 47.2441 75.7976 47.9102 75.8679 48.5801 75.9011 49.207 75.8679 49.8711 75.7253 50.4766 75.5222 51.1016 75.2761 51.7012 74.9246 52.2559 74.5398 52.7832 74.0496 53.3106 73.5222 53.8066 72.8894 54.2559 72.2644 54.6133 71.5886 54.8945 70.9617 55.1035 70.2917 55.2793 69.6257 55.3437 68.9949 55.3437 68.3288 55.2793 67.698 55.1309 67.071 54.9277 66.4324 54.6523 65.8347 54.2949 65.241 53.8769 64.6804 53.416 64.1199 52.8555 63.5925 52.2266 63.1042 52.0586 63.2781 51.8359 63.0964 51.832 63.1023 51.8047 63.0691 51.8359 63.0965 51.9785 62.8933 40.6565 54.5085ZM51.9782 62.8934 51.9802 62.8934 52.2224 63.1024 52.2263 63.1044 52.3982 62.9267 52.1521 62.7177 52.1247 62.6845 51.9783 62.8935ZM97.6482 54.7567 96.4548 54.7938 95.3728 54.9325 94.3494 55.1415 93.4705 55.3837 92.6736 55.6688 91.992 55.9481 90.91 56.5145 90.283 56.9267 90.0701 57.1024 89.158 57.7411 88.1346 58.5087 87.0526 59.3837 85.9374 60.4052 83.4472 62.6474 80.7714 65.2412 78.0077 68.0498 75.1268 71.0283 69.412 77.1728 64.1542 83.0244 59.7675 87.9697 55.6913 92.6689 56.119 92.8779 56.5038 93.0536 56.8944 93.163 57.3163 93.1962 57.6972 93.1962 58.1132 93.163 58.9218 92.9482 59.6972 92.6025 60.4706 92.1415 61.207 91.6201 61.912 90.9873 62.537 90.3544 63.1366 89.7177 64.1152 88.5302 64.7421 87.6513 64.955 87.3056 65.5546 87.8994 66.1152 88.3212 66.6757 88.5693 67.1699 88.706 67.6601 88.706 68.1484 88.6025 68.5722 88.4326 68.9511 88.1787 69.3027 87.8994 69.6269 87.6181 70.1542 86.9912 70.5663 86.3212 71.4394 84.6728 72.3202 83.0576 73.2324 81.4795 74.1777 79.9795 75.1269 78.501 76.1113 77.1006 78.0722 74.3975 80.0351 71.9073 82.0019 69.6261 83.9374 67.5558 85.7616 65.6984 87.5077 64.05 89.0858 62.6145 90.5253 61.3899 91.7831 60.3723 93.5487 59.0325 94.2069 58.5814 95.5096 58.1263 96.5916 57.9173 97.4724 57.8841 97.8572 57.9505 98.1756 58.015 98.4822 58.1576 98.7361 58.3021 99.115 58.681 99.4002 59.1419 99.576 59.6634 99.6814 60.224 99.6814 60.7904 99.576 61.8783 99.4002 62.6478 99.3299 62.9622 98.658 63.4564 98.1756 63.8744 97.8572 64.2962 97.6482 64.681 97.5427 65.0267 97.5427 65.3802 97.6092 65.6654 97.7127 65.9076 97.9334 66.1205 98.0974 66.3295 98.5603 66.6107 99.0877 66.8568 99.7185 67.4837 100.84 68.4408 103.818 70.7162 107.853 73.6674 108.205 74.0131 108.551 74.2592 108.908 74.431 109.221 74.5404 109.535 74.6068 109.853 74.6068 110.408 74.5404 110.836 74.3646 111.187 74.1498 111.502 73.9017 111.568 73.2045 111.711 72.3978 111.947 71.556 112.238 70.7162 112.726 69.3471 112.941 68.7865 112.238 69.099 111.535 69.3139 110.869 69.4565 110.281 69.5229 109.39 69.5561 109.045 69.5229 108.303 69.4838 107.644 69.3803 107.012 69.2045 106.451 68.9955 105.929 68.7533 105.467 68.474 104.693 67.8354 104.133 67.2045 103.742 66.6479 103.467 66.1205 103.082 65.8354 102.803 65.599 102.627 65.3139 102.484 65.0268 102.418 64.7865 102.418 64.5443 102.521 64.1205 102.697 63.7357 102.945 63.4564 103.221 63.2084 104.105 62.2631 104.763 61.4232 105.226 60.6147 105.5 59.8783 105.638 59.1752 105.638 58.5815 105.539 58.015 105.324 57.4877 105.082 57.0697 104.803 56.685 104.49 56.3725 104.17 56.1244 103.681 55.7729 103.467 55.6361 101.851 55.2123 100.346 54.933 98.9764 54.7943 97.6483 54.7572ZM147.935 54.7587 146.963 54.8251 146.117 54.9677 145.451 55.1435 144.886 55.3525 144.502 55.6005 144.193 55.8095 143.972 55.9853 143.836 56.1279 142.121 56.583 140.754 57.0732 140.226 57.3525 139.736 57.6337 139.345 57.913 138.994 58.1943 138.715 58.5068 138.539 58.792 138.369 59.1064 138.258 59.4189 138.224 60.0185 138.291 60.6123 138.5 61.1728 138.818 61.7001 139.166 62.1884 139.527 62.6123 140.154 63.2099 140.435 63.4521 140.89 64.2939 141.172 64.9912 141.275 65.5966 141.236 66.0849 141.099 66.4365 140.89 66.749 140.572 66.958 140.193 67.1005 139.808 67.1728 139.39 67.2392 138.572 67.206 137.763 67.1025 136.406 67.0029 135.275 67.0693 134.361 67.2783 133.636 67.5244 133.07 67.7998 132.679 68.0517 132.406 68.3271 131.806 68.7119 131.279 69.0244 130.718 69.2392 130.23 69.3818 129.773 69.4541 129.322 69.4541 128.9 69.415 128.548 69.3427 127.916 69.1357 127.422 68.8544 127.037 68.5419 126.586 68.1181 126.152 67.8759 125.74 67.7665 125.361 67.7665 125.074 67.8388 124.828 67.9423 124.619 68.0849 124.052 68.5752 123.425 68.9638 122.761 69.2392 122.156 69.4873 121.15 69.7002 120.761 69.7666 120.095 69.1025 119.464 68.6123 118.898 68.2939 118.371 68.1181 117.886 68.0517 117.459 68.1181 117.035 68.2607 116.683 68.4697 116.375 68.7119 116.129 69.0244 115.711 69.5908 115.462 70.0849 115.392 70.2568 114.513 71.7334 113.847 73.0967 113.392 74.3936 113.111 75.5928 113.013 76.7139 113.041 77.7295 113.156 78.6416 113.392 79.4834 113.683 80.2198 113.986 80.8897 114.31 81.4112 114.623 81.8682 115.183 82.4619 115.392 82.6748 125.361 97.0578 125.843 93.8976 125.634 92.3527 125.603 90.9855 125.74 89.8312 125.982 88.8097 126.3 87.9738 126.724 87.2707 127.213 86.6769 127.701 86.214 128.224 85.8625 128.757 85.589 129.289 85.3742 129.74 85.2707 130.443 85.132 130.685 85.132 131.527 85.0617 132.328 85.0617 133.148 85.1652 133.906 85.3019 134.718 85.5441 135.488 85.8312 136.224 86.1828 137 86.6047 137.697 87.0226 138.439 87.5226 139.808 88.6046 141.066 89.753 142.263 90.9854 143.341 92.2549 144.326 93.4404 145.908 95.6552 146.929 97.1943 147.275 97.7881 147.656 98.3916 148.05 98.8428 148.396 99.2666 148.753 99.585 149.38 99.9639 149.914 100.173 150.326 100.173 150.638 100.106 150.925 99.9639 153.662 99.4033 156.189 98.9522 158.541 98.6006 160.707 98.3487 162.713 98.1729 164.498 98.1065 166.109 98.0733 167.548 98.1065 169.9 98.2432 171.543 98.458 172.533 98.667 172.84 98.7725 173.533 98.7002 174.148 98.6006 174.593 98.458 174.939 98.3154 175.23 98.1397 175.433 97.9639 175.55 97.7608 175.611 97.585 175.578 97.1944 175.466 96.876 175.269 96.5615 166.988 83.1705 166.576 82.3288 166.179 81.653 165.752 81.1647 165.367 80.8131 164.988 80.6374 164.642 80.5377 164.285 80.5377 163.97 80.6374 163.685 80.7799 163.41 80.9889 162.982 81.4108 162.603 81.9381 148.962 91.4401 148.325 91.9675 147.726 92.2858 147.165 92.4948 146.617 92.5671 146.083 92.528 145.626 92.3913 145.171 92.1765 144.753 91.8972 144.402 91.6159 144.077 91.3034 143.55 90.6706 143.138 90.0065 142.714 89.0222 142.329 88.2194 141.972 87.5886 141.626 87.0612 141.314 86.6765 140.999 86.3581 140.72 86.1823 140.466 86.071 140.263 86.0046 140.05 86.0046 139.736 86.1159 139.527 86.2468 139.456 86.319 138.818 86.0436 138.224 85.7644 137.242 85.1315 136.472 84.4558 135.911 83.8347 135.488 83.3073 135.242 82.8503 135.066 82.4343 134.609 81.6921 134.263 81.0261 134.021 80.4655 133.878 79.9382 133.839 79.4831 133.878 79.0925 133.976 78.7468 134.12 78.4655 134.3 78.2194 134.476 78.0105 134.89 77.7624 135.312 77.5534 137.169 76.1862 138.818 74.7448 140.302 73.3503 141.554 71.9108 142.675 70.5026 143.632 69.1022 144.435 67.7995 145.105 66.5417 145.66 65.3757 146.083 64.3327 146.677 62.5729 146.962 61.4186 147.029 61.0007 147.238 60.2604 147.49 59.7038 147.759 59.2819 148.05 58.9636 148.326 58.7604 148.544 58.6432 148.716 58.5827 149.837 58.3307 150.826 58.194 151.699 58.155 152.458 58.2311 153.101 58.3698 153.661 58.5827 154.113 58.8581 154.501 59.1393 154.816 59.4577 155.062 59.7702 155.376 60.403 155.519 60.821 155.558 61.0007 186.238 109.224 186.668 109.927 187.047 110.417 187.398 110.802 187.717 111.015 187.996 111.12 188.232 111.12 188.408 111.048 188.595 110.905 188.877 110.487 189.052 110.032 189.15 109.476 188.904 108.56 188.793 107.96 188.843 107.581 188.877 107.47 188.974 107.399 189.183 107.433 189.468 107.646 189.816 107.927 190.201 108.345 191.052 109.327 191.783 110.345 192.552 111.439 192.91 112.245 193.255 112.839 193.531 113.218 193.822 113.472 194.058 113.571 194.277 113.571 194.443 113.427 194.625 113.257 194.898 112.696 195.113 112.103 195.255 111.439 195.361 110.593 195.361 109.679 195.222 108.767 195.013 107.855 194.734 106.942 194.377 106.03 193.959 105.157 193.531 104.315 192.656 102.778 191.886 101.542 191.119 100.458 189.998 98.6007 189.261 97.1945 188.843 96.1769 188.695 95.5128 188.695 95.3038 188.761 95.1613 188.877 95.0948 189.052 95.0948 189.468 95.2316 189.998 95.5402 190.623 95.9679 191.298 96.5285 192.619 97.6496 194.025 99.0186 194.898 99.546 195.57 99.8917 196.097 100.107 196.443 100.173 196.691 100.107 196.794 99.964 196.834 99.7159 196.794 99.4464 196.558 98.7393 196.168 98.0401 195.746 97.2979 178.209 73.4149 175.797 70.7176 173.576 68.3602 171.615 66.3329 169.797 64.5458 168.175 63.0673 166.74 61.8427 165.509 60.8212 164.388 60.0185 163.476 59.3857 162.668 58.8974 161.515 58.331 160.849 58.122 160.673 58.0888 158.152 57.0732 155.871 56.2646 153.865 55.6318 152.08 55.2099 150.496 54.9346 149.132 54.792 147.935 54.7588ZM206.164 56.7567 205.531 56.8622 204.928 57.0048 204.307 57.247 203.67 57.5321 203.043 57.9169 202.41 58.329 201.598 59.0048 200.977 59.7021 200.483 60.4384 200.131 61.247 199.955 62.0927 199.922 62.9228 200.026 63.8739 200.307 64.8251 202.02 69.5556 202.092 69.9072 202.125 70.2529 202.125 70.6376 202.053 70.995 201.922 71.3095 201.74 71.6279 201.537 71.9072 201.252 72.1161 200.723 72.4677 200.192 72.6435 199.674 72.6767 199.119 72.5673 198.553 72.331 198.02 71.9794 197.498 71.4521 196.938 70.8134 196.52 70.1552 196.24 69.4853 196.096 68.8583 196.096 68.2255 196.24 67.6279 196.52 67.0341 196.971 66.4736 197.568 65.9072 195.504 63.1045 194.826 63.6709 194.278 64.2255 193.789 64.7861 193.36 65.3799 193.002 65.9834 192.733 66.5771 192.553 67.1709 192.414 67.8037 192.381 68.4404 192.414 69.0674 192.487 69.7314 192.656 70.4013 192.908 71.0674 193.256 71.7373 193.641 72.3974 194.102 73.0615 194.623 73.7002 195.114 74.2607 195.684 74.749 196.24 75.1728 196.795 75.4853 197.389 75.7607 197.998 75.9795 198.619 76.1181 199.25 76.1513 199.889 76.1513 200.52 76.0791 201.186 75.9033 201.817 75.7002 202.483 75.3759 203.141 74.9912 203.78 74.5732 204.725 73.7646 205.071 73.3798 205.389 72.9912 205.637 72.5673 205.84 72.1552 206.022 71.6943 206.131 71.2431 206.203 70.4345 206.203 69.6982 206.055 68.9287 205.84 68.122 204.016 63.1767 203.916 62.8232 203.883 62.4716 203.883 62.1591 203.955 61.8408 204.098 61.5263 204.268 61.247 204.516 60.9619 204.801 60.7197 205.252 60.4384 205.785 60.2627 206.268 60.2256 206.758 60.2959 207.285 60.4716 207.774 60.79 208.237 61.1748 208.655 61.6982 209.077 62.2959 209.313 62.9228 209.455 63.5283 209.455 64.0888 209.358 64.6494 209.077 65.2099 208.692 65.7685 208.164 66.3291 210.231 69.1006 210.83 68.6162 211.352 68.1221 211.813 67.5947 212.198 67.0342 212.506 66.4736 212.754 65.874 212.967 65.2803 213.073 64.6494 213.133 64.0498 213.133 63.417 213.073 62.792 212.897 62.1201 212.688 61.4892 212.412 60.8623 212.049 60.2256 211.637 59.5928 211.137 59.0322 210.682 58.5107 210.155 58.0537 209.637 57.6631 209.077 57.3564 208.516 57.1025 207.955 56.8994 207.358 56.7842 206.758 56.7568 206.164 56.7568ZM151.135 60.2255 150.711 60.2958 150.366 60.4716 150.051 60.6415 149.766 60.8955 149.311 61.4169 149.063 61.8075 148.963 61.9775 148.811 62.7919 148.606 63.6259 148.366 64.4345 148.051 65.2411 147.309 66.8583 146.436 68.4403 145.414 69.9403 144.327 71.3798 143.205 72.7489 142.051 74.0458 140.93 75.206 139.809 76.2939 137.912 78.0068 136.582 79.1338 136.055 79.5186 136.928 81.0967 137.698 82.2178 138.37 82.9541 138.93 83.4092 139.346 83.6182 139.694 83.6963 139.87 83.6963 139.952 83.6572 140.93 82.8155 142.891 80.9854 148.366 75.837 156.047 68.54 156.25 68.1221 156.432 67.6982 156.535 67.3076 156.608 66.9619 156.608 66.3311 156.465 65.8018 156.25 65.4229 156.047 65.1377 155.799 64.8955 154.322 62.2256 153.696 61.4893 153.135 60.9619 152.569 60.5772 152.041 60.335 151.551 60.2256 151.135 60.2256ZM95.3342 61.4169 94.9494 61.456 94.5315 61.4892 93.7912 61.6982 92.9826 61.9775 87.3713 67.5888 86.883 67.9794 86.4924 68.3642 86.2073 68.6825 86.0354 68.995 85.9045 69.2763 85.8596 69.5556 85.8596 69.7645 85.9377 69.9794 86.1077 70.3309 86.3499 70.5673 86.635 70.7489 89.6858 72.9188 92.5217 74.8153 95.1916 76.4696 97.6857 77.87 99.9611 79.0243 102.1 79.9755 104.028 80.745 105.781 81.3778 107.33 81.8329 108.66 82.1845 109.821 82.4325 110.766 82.5692 112.03 82.6747 112.481 82.6747 112.199 81.4423 111.914 80.3993 111.606 79.4813 111.266 78.7513 110.914 78.1517 110.557 77.6576 110.178 77.2728 109.832 76.9974 109.475 76.7826 109.162 76.6791 108.602 76.5365 108.217 76.5736 108.106 76.6068 107.024 76.1517 105.942 75.5912 104.848 74.9915 103.754 74.3275 101.621 72.9193 99.6543 71.5189 97.9785 70.1888 96.6035 69.1009 95.418 68.0833 95.0997 67.804 94.8907 67.5286 94.7149 67.2376 94.6426 66.9622 94.6094 66.6829 94.6426 66.4348 94.8126 65.9466 95.0997 65.5227 95.3458 65.2102 95.6602 64.8958 96.0821 63.9798 96.3243 63.2434 96.4337 62.6497 96.3907 62.1926 96.2149 61.8411 96.0118 61.6321 95.6915 61.4895 95.3458 61.4173ZM158.113 69.5263 157.932 69.5537 157.756 69.6572 157.514 69.9424 157.344 70.333 157.234 70.7509 143.375 83.4129 143.03 83.7586 142.825 84.1434 142.76 84.5672 142.793 85.0223 142.891 85.4793 143.1 85.9344 143.342 86.3915 143.633 86.8465 144.293 87.6942 144.887 88.3915 145.563 89.0223 145.733 89.3368 145.942 89.5458 146.194 89.7215 146.469 89.7977 146.782 89.8309 147.1 89.7977 147.76 89.6161 148.397 89.37 148.963 89.0946 149.457 88.7821 161.867 78.7801 162.104 78.5379 162.322 78.2898 162.531 77.7625 162.604 77.241 162.531 76.7469 162.422 76.2957 162.283 75.9442 162.104 75.6258 159.944 71.4871 159.547 70.8172 159.158 70.3328 158.85 69.9812 158.574 69.7293 158.322 69.5906 158.113 69.5262ZM84.2072 71.9814 82.6349 73.663 81.1681 75.3778 79.8322 77.0633 78.672 78.6082 77.0294 81.0262 76.4239 81.9383 78.1387 82.9169 80.1114 83.8719 82.2891 84.8446 84.6016 85.7958 89.4043 87.5868 94.2461 89.2313 98.6582 90.6375 102.281 91.7254 105.639 92.6707 105.499 92.0017 105.428 91.4411 105.395 90.9177 105.428 90.4626 105.499 90.0388 105.604 89.6872 105.895 89.0935 106.241 88.7087 106.522 88.4626 106.874 88.2868 107.292 87.7595 107.78 87.3747 108.379 87.0935 109.004 86.9177 109.71 86.8142 110.407 86.8142 111.155 86.8806 111.852 86.99 113.219 87.2693 114.34 87.6208 115.391 88.0447 113.428 85.1326 112.067 85.0994 110.692 85.0232 109.329 84.8455 107.995 84.6384 106.653 84.3181 105.323 84.0115 103.993 83.6209 102.696 83.1697 101.426 82.6756 100.169 82.1814 97.7838 81.0603 95.4693 79.8728 93.3326 78.6423 91.3658 77.4157 89.6178 76.1852 88.0358 75.07 86.733 74.0485 84.8814 72.5368 84.2057 71.9821ZM33.1702 82.5284 32.7268 82.5675 32.2308 82.6437 31.3909 82.9132 30.5882 83.3429 29.885 83.9034 29.3245 84.6066 29.1155 84.9855 28.9065 85.3761 28.7308 85.798 28.6214 86.2491 28.555 86.7062 28.555 87.2003 28.555 87.6515 28.6214 88.1066 28.9065 88.9913 29.3245 89.7941 29.8851 90.4972 30.5882 91.0519 30.9671 91.2667 31.3909 91.4815 31.8128 91.6183 32.2308 91.7608 32.7269 91.8272 33.1702 91.8272 33.6702 91.8272 34.1273 91.7608 35.0003 91.4815 35.7816 91.0518 36.4788 90.4972 37.0335 89.794 37.4632 88.9913 37.6331 88.5675 37.7386 88.1065 37.8089 87.6515 37.8538 87.2003 37.8089 86.7061 37.7386 86.2491 37.4632 85.3761 37.0335 84.6065 36.4788 83.9034 36.1273 83.5831 35.7816 83.3429 35.0003 82.9132 34.5784 82.7433 34.1273 82.6436 33.6702 82.5675 33.1702 82.5284ZM215.81 82.5284 215.355 82.5675 214.904 82.6437 214.019 82.9132 213.222 83.3429 212.547 83.9034 211.98 84.6066 211.744 84.9855 211.529 85.3761 211.392 85.798 211.289 86.2491 211.211 86.7062 211.177 87.2003 211.211 87.6515 211.289 88.1066 211.529 88.9913 211.98 89.7941 212.547 90.4972 213.222 91.0519 213.601 91.2667 214.019 91.4815 214.443 91.6183 214.904 91.7608 215.355 91.8272 215.81 91.8272 216.304 91.8272 216.761 91.7608 217.634 91.4815 218.437 91.0518 219.103 90.4972 219.668 89.794 220.131 88.9913 220.261 88.5675 220.367 88.1065 220.443 87.6515 220.476 87.2003 220.443 86.7061 220.367 86.2491 220.131 85.3761 219.668 84.6065 219.103 83.9034 218.437 83.3429 217.634 82.9132 217.216 82.7432 216.761 82.6436 216.304 82.5675 215.81 82.5284ZM75.1702 83.8722 74.8186 83.9718 74.4671 84.1418 74.0882 84.4289 73.2757 85.1652 72.4729 86.0441 71.7366 86.9504 71.137 87.7199 70.5706 88.5324 70.0764 89.1926 69.555 89.7199 69.0276 90.1496 68.5042 90.423 67.971 90.6379 67.4886 90.7746 66.9983 90.8527 66.5433 90.8527 65.6917 90.7101 65.0706 90.5343 64.4769 90.2472 62.5863 92.2863 61.0746 93.7922 59.8773 94.7766 58.9651 95.4075 58.3323 95.7219 57.9476 95.8645 57.7386 95.8645 57.6683 95.8254 57.2112 96.2434 56.8265 96.6711 56.5081 97.0891 56.2229 97.4739 55.8773 98.2825 55.6956 98.9856 55.6292 99.5852 55.6292 100.034 55.6956 100.458 52.5472 106.806 53.4203 106.634 54.1234 106.558 54.6839 106.591 55.1351 106.695 55.4593 106.87 55.6292 107.118 55.7835 107.366 55.8109 107.685 55.8109 107.997 55.7386 108.312 55.5257 108.872 55.2503 109.476 50.8597 116.554 52.3382 116.63 53.6351 116.63 54.7562 116.554 55.6957 116.384 56.4808 116.169 57.141 115.927 57.6683 115.648 58.0531 115.361 58.3715 115.048 58.5804 114.736 58.7621 114.448 58.8226 114.175 58.8929 113.779 58.8929 113.603 58.8929 112.982 58.9652 112.448 59.0687 112.031 59.1742 111.673 59.35 111.437 59.4867 111.224 59.6684 111.118 59.8773 111.021 60.223 110.976 60.5414 111.048 60.8285 111.191 62.1957 110.591 63.3168 109.997 64.2231 109.4 64.9613 108.8 65.5219 108.312 65.9106 107.894 66.1859 107.542 66.3012 106.982 66.434 106.558 66.6039 106.212 66.8227 105.931 67.0316 105.716 67.2406 105.613 67.4887 105.509 67.7348 105.47 68.1527 105.542 68.5375 105.652 68.8617 105.822 69.6918 105.822 70.5043 105.718 71.2738 105.47 72.0551 105.124 72.7797 104.706 73.4828 104.179 74.1488 103.652 74.7797 103.085 75.8695 101.964 76.6761 100.952 77.4183 99.9641 103.713 101.931 104.28 101.997 104.807 101.997 105.231 101.964 105.543 101.892 105.819 101.788 106.034 101.679 106.204 101.54 106.313 101.37 106.422 101.058 106.455 100.771 106.385 100.458 105.961 99.0891 105.68 97.8645 105.329 95.968 105.192 94.7766 105.153 94.3918 101.516 93.5833 98.0707 92.7375 94.9145 91.8625 91.9965 90.9836 89.2992 90.1047 86.8871 89.2317 84.6723 88.3899 82.7094 87.5872 80.9965 86.8137 79.518 86.1145 77.2368 84.9563 75.9126 84.1868 75.4517 83.9016 75.4517 83.8996 75.1704 83.8723ZM130.971 87.6945 130.377 87.8703 129.883 88.1105 129.502 88.4308 129.178 88.8098 128.942 89.1945 128.762 89.5832 128.553 90.216 128.52 90.4641 128.299 90.7101 128.135 90.9855 127.85 91.7277 127.641 92.6398 127.465 93.6886 127.36 94.8429 127.321 96.0734 127.321 98.6027 127.426 101.052 127.602 103.124 127.772 105.087 127.602 105.999 127.393 106.663 127.217 107.12 127.041 107.433 126.827 107.575 126.657 107.615 126.487 107.509 126.305 107.329 126.024 106.839 125.778 106.241 125.608 105.581 125.151 104.388 124.657 103.197 123.639 100.882 122.514 98.7005 121.397 96.7396 120.381 95.0912 119.573 93.7943 118.799 92.6732 117.991 91.7611 117.215 90.9857 116.491 90.392 115.782 89.8978 115.122 89.5463 114.491 89.3041 113.924 89.1674 113.397 89.0951 112.907 89.056 112.485 89.0951 111.819 89.2318 111.401 89.4076 111.258 89.513 110.731 89.4799 110.243 89.4799 109.825 89.5463 109.395 89.6498 109.049 89.7982 108.731 89.974 108.456 90.1771 108.209 90.4642 107.825 91.056 107.543 91.7279 107.334 92.4584 107.219 93.2338 107.186 94.0404 107.219 94.8099 107.334 96.179 107.51 97.1615 107.604 97.5462 108 98.8431 108.209 100.037 108.28 101.191 108.209 102.251 108 103.224 107.686 104.103 107.334 104.943 106.907 105.685 106.455 106.318 105.961 106.912 105.504 107.367 105.088 107.785 104.455 108.312 104.174 108.488 104.143 108.656 148.967 107.783 151.305 107.593 151.139 107.542 150.467 107.296 149.946 107.015 149.49 106.736 148.934 106.285 148.721 106.07 148.055 105.648 147.528 105.124 147.106 104.564 146.785 103.999 146.539 103.476 146.406 103.048 146.291 102.664 145.703 101.152 145.071 99.7514 144.367 98.4584 143.67 97.2611 142.895 96.1791 142.153 95.1615 141.422 94.2494 140.686 93.474 139.352 92.1459 138.262 91.2318 137.559 90.6713 137.289 90.4643 135.844 89.4526 134.586 88.6713 133.493 88.1108 132.51 87.7924 131.674 87.6947 130.971 87.6947ZM151.305 107.593 151.913 107.784 149.555 108.598 146.967 109.438 143.77 110.417 140.159 111.438 136.374 112.378 134.51 112.807 132.653 113.153 130.899 113.428 129.251 113.604 103.714 110.944 104.143 108.655 103.862 108.661 91.436 107.188 83.4087 117.184 85.5845 127.428 85.688 167.346 91.52 170.885 91.52 132.621 91.5805 131.955 91.729 131.319 91.9966 130.731 92.393 130.204 92.8774 129.743 93.4419 129.389 94.1469 129.182 94.9536 129.116 95.438 129.149 95.8989 129.286 96.2837 129.467 96.5962 129.676 96.8774 129.955 97.1255 130.237 97.477 130.868 97.6899 131.539 97.7895 132.061 97.8618 132.621 97.938 173.721 103.577 175.446 103.647 133.501 103.686 133.077 103.747 132.55 103.922 131.956 104.208 131.358 104.631 130.798 104.874 130.583 105.192 130.374 105.504 130.204 105.934 130.062 106.352 129.989 106.84 129.956 107.401 129.989 107.895 130.095 108.28 130.274 108.665 130.483 108.946 130.765 109.186 131.044 109.577 131.671 109.786 132.341 109.891 132.901 109.924 133.425 109.924 177.404 116.034 179.503 115.891 133.737 115.924 133.044 116.061 132.48 116.303 131.814 116.491 131.495 116.688 131.183 116.946 130.902 117.249 130.659 117.606 130.441 118.034 130.308 118.524 130.204 119.079 130.171 119.639 130.204 120.133 130.308 120.512 130.484 120.897 130.698 121.188 130.968 121.424 131.253 121.809 131.886 122.03 132.55 122.133 133.077 122.161 133.638 122.161 180.24 128.202 180.24 128.03 133.672 128.096 133.045 128.229 132.447 128.475 131.777 128.905 131.145 129.147 130.836 129.465 130.584 129.811 130.375 130.235 130.205 130.69 130.096 131.217 130.062 131.811 130.096 132.335 130.238 132.795 130.408 133.18 130.66 133.493 130.936 133.741 131.217 133.95 131.572 134.092 131.887 134.307 132.551 134.405 133.111 134.405 133.672 134.483 178.91 139.664 177.404 139.631 133.25 139.631 132.902 139.741 132.414 139.955 131.848 140.231 131.254 140.649 130.699 140.934 130.441 141.241 130.205 141.592 130.029 141.977 129.881 142.401 129.814 142.862 129.781 143.495 129.814 144.022 129.957 144.44 130.139 144.825 130.342 145.11 130.623 145.346 130.936 145.528 131.254 145.664 131.605 145.836 132.271 145.879 132.832 145.879 133.393 145.985 175.338 151.276 173.519 151.243 132.099 151.315 131.359 151.457 130.798 151.737 130.205 152.118 129.644 152.403 129.357 152.672 129.15 153.067 128.941 153.452 128.759 153.942 128.66 154.469 128.621 155.036 128.66 155.524 128.726 155.942 128.908 156.293 129.117 156.612 129.39 156.848 129.677 157.2 130.341 157.415 130.968 157.518 131.541 157.551 132.101 157.629 170.816 163.69 167.517 163.766 127.429 166.674 117.185 159.381 106.943 151.305 107.594ZM18.1752 103.016 17.6479 106.594 26.3862 107.858 25.3042 115.36 28.98 115.925 30.1011 108.419 34.7339 109.085 33.4741 117.678 37.1518 118.239 38.937 106.067 18.175 103.016ZM232.125 103.364 211.324 106.176 212.023 111.325 228.859 112.167 212.836 117.464 213.528 122.69 234.335 119.882 233.917 116.551 216.409 118.903 233.493 113.397 233.005 109.885 215.112 109.046 232.575 106.698 232.125 103.364ZM176.527 109.966 176.144 110.098 175.973 110.241 175.803 110.417 175.517 110.944 175.342 111.719 175.236 112.774 175.275 114.098 175.441 114.417 175.557 114.735 175.654 115.186 175.615 115.753 175.473 116.38 175.127 117.05 174.885 117.395 174.533 117.747 174.072 117.989 173.66 118.274 173.303 118.626 173.16 118.868 173.1 119.116 173.127 119.395 173.197 119.71 173.412 120.028 173.726 120.38 174.187 120.759 174.781 121.149 175.369 121.364 175.902 121.604 176.463 121.989 176.715 122.237 176.918 122.485 177.06 122.798 177.166 123.116 177.166 123.501 177.06 123.886 176.848 124.343 176.496 124.837 176.281 125.221 176.182 125.639 176.182 126.204 176.248 126.479 176.391 126.798 176.605 127.079 176.918 127.391 177.303 127.677 177.797 127.952 178.424 128.237 179.166 128.479 179.721 128.409 180.287 128.409 180.99 128.446 181.687 128.552 182.365 128.794 182.666 128.942 182.908 129.151 183.156 129.386 183.305 129.71 183.435 128.903 183.617 128.094 183.93 127.112 184.353 126.055 184.639 125.573 184.941 125.079 185.332 124.616 185.723 124.204 186.217 123.886 186.738 123.6 187.623 122.901 188.414 122.165 189.189 121.286 189.508 120.841 189.762 120.38 189.898 119.923 189.898 119.501 189.762 119.116 189.646 118.907 189.443 118.764 188.941 118.45 188.168 118.241 187.756 118.204 187.299 118.065 186.805 117.819 186.596 117.643 186.344 117.395 186.178 117.153 186.041 116.802 185.932 116.413 185.865 115.956 185.892 115.434 185.996 114.835 185.963 114.313 185.865 113.78 185.656 113.257 185.469 113.016 185.265 112.807 184.98 112.665 184.672 112.554 184.25 112.554 183.799 112.626 183.238 112.841 182.601 113.12 182.183 113.296 181.721 113.395 181.232 113.472 180.738 113.429 180.535 113.362 180.326 113.22 180.15 113.05 180.008 112.841 179.93 112.52 179.908 112.169 179.681 111.929 179.133 111.329 178.32 110.663 177.863 110.345 177.402 110.098 176.951 109.966 176.527 109.966ZM71.0672 113.122 70.8192 113.192 70.1277 113.428 69.1336 113.852 67.952 114.522 67.2762 114.973 66.6493 115.501 66.0165 116.137 65.4286 116.837 64.8641 117.643 64.3309 118.555 63.8739 119.534 63.5282 120.694 63.034 121.288 62.5887 121.991 62.159 122.87 61.9833 123.36 61.8348 123.882 61.7684 124.448 61.7684 125.009 61.8348 125.573 62.0555 126.134 62.3622 126.694 62.786 127.251 62.9676 127.639 63.1434 128.096 63.3192 128.723 63.4618 129.536 63.495 130.553 63.4618 131.739 63.2801 133.114 64.2645 131.921 65.3133 130.585 66.577 128.903 67.8407 126.975 68.4345 125.921 69.0282 124.87 69.5556 123.821 69.9853 122.766 70.3309 121.71 70.5731 120.694 70.4364 120.27 70.37 119.782 70.2587 119.013 70.2587 117.991 70.37 116.667 70.6122 115.05 71.0673 113.122ZM36.7332 119.395 15.7562 120.378 16.389 133.501 20.137 133.319 19.6858 123.747 25.0881 123.504 25.4729 131.885 29.1877 131.71 28.7697 123.323 33.1759 123.116 33.6056 132.231 37.3322 132.061 36.7326 119.395ZM77.1722 120.94 76.887 121.501 76.5023 122.165 75.8695 123.046 75.0355 124.094 73.8695 125.255 73.1722 125.846 72.3968 126.479 71.5296 127.112 70.5726 127.749 70.4359 127.848 70.0121 128.167 69.4515 128.688 69.1331 129.079 68.8636 129.534 68.5394 130.057 68.2601 130.694 68.012 131.391 67.8031 132.167 67.6664 133.042 67.5609 134.03 67.5609 135.075 67.6664 136.272 67.5609 136.651 67.3851 137.673 67.348 138.372 67.348 139.145 67.4574 139.987 67.6664 140.893 68.0882 140.235 68.6449 139.526 69.3812 138.618 70.3304 137.563 71.4456 136.475 72.7483 135.354 73.4846 134.827 74.221 134.342 74.469 134.161 75.1018 133.673 75.4905 133.288 75.9475 132.794 76.3596 132.167 76.7874 131.464 77.1721 130.624 77.5198 129.678 77.7659 128.551 77.9417 127.321 77.9749 125.952 77.8714 124.446 77.5843 122.764 77.1721 120.94ZM56.4432 121.643 54.7889 125.604 53.7401 127.88 53.2186 128.94 53.0428 129.215 53.076 129.848 53.1405 130.518 53.2889 131.145 53.4217 131.737 53.8827 132.973 54.4764 134.094 55.1737 135.145 55.9881 136.161 56.7948 137.106 57.6698 137.948 58.5487 138.727 59.3514 139.381 60.8573 140.481 61.9178 141.141 62.2967 141.387 61.8729 140.338 61.5331 139.254 61.246 138.2 60.9999 137.106 60.6913 135.073 60.5428 133.178 60.4764 131.573 60.5155 130.303 60.576 129.215 60.3339 128.446 59.8397 127.391 58.4393 124.868 57.0702 122.622 56.4433 121.643ZM193.623 122.2 193.371 122.272 193.096 122.415 192.772 122.585 192.463 122.833 191.832 123.569 191.129 124.585 191.338 124.905 191.508 125.217 191.547 125.608 191.475 125.817 191.371 126.02 191.195 126.233 190.92 126.411 190.535 126.624 190.041 126.762 189.447 126.899 188.672 127.008 188.535 127.008 188.172 127.008 187.694 127.108 187.408 127.217 187.16 127.387 186.92 127.602 186.711 127.883 186.535 128.239 186.424 128.657 186.348 129.184 186.391 129.811 186.496 130.553 186.744 131.393 186.111 131.883 185.59 132.417 185.303 132.762 185.024 133.18 184.776 133.598 184.6 134.059 184.506 134.548 184.463 135.108 184.529 135.669 184.715 136.229 185.063 136.868 185.518 137.495 185.76 137.78 186.045 138.126 186.287 138.549 186.572 139.077 186.744 139.637 186.809 140.264 186.809 140.577 186.744 140.895 186.348 141.28 186.078 141.704 185.836 142.27 185.803 142.589 185.803 142.934 185.869 143.286 186.002 143.665 186.248 144.055 186.6 144.473 187.1 144.864 187.694 145.28 188.151 145.77 189.162 146.962 190.178 148.264 190.496 148.758 190.633 149.133 190.633 148.858 190.733 148.546 190.953 148.122 191.336 147.594 191.969 147.034 192.848 146.403 194.035 145.77 194.42 145.594 194.805 145.391 195.233 145.073 195.58 144.61 195.695 144.337 195.793 144.022 195.826 143.665 195.793 143.286 195.695 142.825 195.514 142.368 195.233 141.88 195.051 141.391 194.908 140.797 194.908 140.44 194.942 140.131 195.024 139.807 195.195 139.495 195.436 139.18 195.756 138.901 196.178 138.653 196.701 138.477 197.233 138.44 197.723 138.301 197.975 138.165 198.211 138.022 198.42 137.78 198.563 137.495 198.668 137.147 198.668 136.725 198.596 136.198 198.42 135.604 198.107 134.905 197.69 134.098 197.441 133.817 197.266 133.532 197.123 133.18 197.057 132.719 197.096 132.483 197.156 132.235 197.299 131.956 197.508 131.708 197.826 131.426 198.174 131.147 198.459 130.801 198.668 130.405 198.799 129.844 198.85 129.538 198.768 129.184 198.668 128.796 198.498 128.378 198.211 127.948 197.828 127.499 197.326 127.008 196.701 126.514 196.635 126.163 196.387 125.327 195.965 124.233 195.696 123.672 195.371 123.184 195.026 122.727 194.596 122.415 194.145 122.239 193.893 122.2 193.623 122.2ZM190.633 149.134 190.633 149.14 190.635 149.14 190.633 149.134ZM213.676 124.056 211.889 136.618 232.651 139.602 234.508 126.622 230.794 126.101 229.46 135.57 224.1 134.794 225.282 126.446 221.606 125.919 220.418 134.267 216.067 133.64 217.358 124.589 213.676 124.056ZM172.676 128.515 172.334 128.587 171.944 128.796 171.592 129.148 171.268 129.681 170.961 130.406 170.641 131.396 170.68 131.708 170.641 132.099 170.576 132.517 170.401 133.044 170.153 133.572 169.729 134.099 169.201 134.55 168.713 135.044 168.283 135.566 167.938 136.198 167.801 136.55 167.768 136.935 167.768 137.286 167.871 137.632 168.047 137.984 168.367 138.335 168.811 138.654 169.455 138.935 169.592 139.253 169.84 139.984 169.91 140.48 169.944 141.007 169.867 141.568 169.692 142.128 169.592 142.298 169.416 142.753 169.24 143.462 169.201 143.847 169.201 144.226 169.279 144.644 169.416 145.073 169.658 145.462 169.983 145.81 170.438 146.122 170.992 146.404 171.729 146.616 172.61 146.755 172.85 146.931 173.104 147.144 173.285 147.425 173.346 147.777 173.307 147.986 173.203 148.2 173.065 148.404 172.819 148.618 172.543 148.859 172.113 149.14 171.697 149.667 171.383 150.228 171.235 150.54 171.137 150.859 171.092 151.183 171.137 151.486 171.268 151.773 171.483 152.013 171.846 152.228 172.373 152.404 172.989 152.509 173.834 152.54 174.537 153.113 176.358 154.37 177.516 155.134 178.746 155.839 179.973 156.476 181.127 156.927 181.088 156.612 181.127 156.185 181.27 155.663 181.545 154.997 182.039 154.261 182.782 153.458 183.276 152.997 183.803 152.54 184.039 152.476 184.6 152.195 185.303 151.771 185.694 151.486 186 151.14 186.248 150.794 186.457 150.404 186.534 149.947 186.457 149.458 186.287 148.964 185.897 148.437 185.336 147.849 184.528 147.243 183.936 147.068 183.369 146.864 183.061 146.65 182.815 146.441 182.573 146.161 182.369 145.843 182.215 145.425 182.188 144.968 182.215 144.447 182.369 143.847 182.639 143.138 183.061 142.368 183.512 141.984 183.83 141.568 184.112 141.038 184.182 140.798 184.182 140.511 184.067 140.265 183.903 139.984 183.588 139.741 183.16 139.529 182.606 139.357 181.869 139.181 181.373 139.181 180.924 139.032 180.709 138.935 180.539 138.765 180.358 138.55 180.252 138.302 180.182 137.945 180.209 137.566 180.33 137.071 180.539 136.478 180.885 135.814 181.375 135.044 181.485 134.341 181.512 133.638 181.451 132.9 181.309 132.517 181.127 132.196 180.885 131.884 180.539 131.675 180.11 131.499 179.588 131.427 178.955 131.46 178.219 131.642 177.895 131.741 177.594 131.775 177.17 131.775 176.682 131.675 176.149 131.427 175.588 131.044 175.028 130.405 174.571 129.747 174.043 129.187 173.731 128.939 173.379 128.724 173.028 128.587 172.676 128.515ZM37.786 134.23 28.7743 136.273 17.3053 138.829 18.9811 146.474 19.1959 147.177 19.5143 147.847 19.8932 148.435 20.3874 148.929 20.9538 149.419 21.5807 149.837 22.2838 150.232 23.0592 150.544 23.8991 150.792 24.778 150.962 25.7194 151.073 26.7409 151.138 27.7956 151.105 28.7741 151.073 28.7741 151.071 28.8776 151.038 29.9987 150.858 31.153 150.653 32.2409 150.368 33.3014 150.05 34.2467 149.665 35.1159 149.286 35.9284 148.825 36.6588 148.368 37.3366 147.88 37.9245 147.319 38.4186 146.72 38.8366 146.12 39.1549 145.462 39.401 144.79 39.5729 144.126 39.6491 143.384 39.61 142.659 39.4674 141.917 37.7858 134.23ZM79.106 134.341 79.1177 134.562 79.1392 134.511 79.1392 134.374 79.106 134.341ZM79.1177 134.562 79.0298 134.759 78.7544 135.22 78.1998 135.847 77.2427 136.689 75.8755 137.81 73.9888 139.177 73.7701 139.286 73.2427 139.64 72.4791 140.265 72.0884 140.695 71.6275 141.183 71.2427 141.737 70.8248 142.409 70.4791 143.173 70.1978 144.025 69.9498 144.97 69.8072 146.019 69.7798 147.179 69.8404 148.437 69.9498 148.722 70.0494 149.103 70.1314 149.667 70.1646 150.366 70.1646 151.179 70.0494 152.157 69.8404 153.284 70.8248 152.124 73.1764 149.421 75.9186 146.443 77.1334 145.173 78.1158 144.3 78.3697 143.531 78.5787 142.618 78.7818 141.425 78.9967 139.952 79.1763 138.238 79.2056 136.374 79.1178 134.562ZM52.0687 137.497 52.0687 137.946 52.1351 139.177 52.2328 140.025 52.4086 141.007 52.6566 142.097 53.0082 143.212 53.4691 144.403 54.057 145.597 54.7933 146.788 55.6683 147.987 56.1683 148.548 56.7289 149.03 57.3285 149.597 57.9535 150.087 58.6527 150.575 59.4262 151.036 60.2289 151.454 61.0805 151.833 61.3168 151.767 61.6352 151.767 62.1312 151.833 62.8344 152.093 63.7406 152.542 64.9652 153.241 66.4379 154.257 65.4946 152.015 64.6918 149.948 64.0258 147.948 63.8442 147.46 63.6039 146.86 63.1137 146.091 62.4106 145.173 61.4262 144.161 60.8344 143.597 60.1352 143.036 59.3168 142.476 58.4105 141.882 57.602 141.601 56.7289 141.249 55.7016 140.794 54.6235 140.161 53.5688 139.382 53.1118 138.97 52.6958 138.507 52.3442 138.024 52.0688 137.497ZM211.679 137.985 208.14 151.487 211.749 152.437 213.046 147.458 229.775 151.734 230.681 148.3 213.958 143.947 215.255 138.935 211.679 137.986ZM34.9787 138.509 35.7873 142.163 35.8537 142.587 35.8869 143.005 35.8205 143.384 35.7053 143.769 35.5725 144.165 35.3264 144.517 35.051 144.823 34.7326 145.142 33.9182 145.741 32.8752 146.269 31.6115 146.72 30.1701 147.099 28.7697 147.39 28.6271 147.39 27.2638 147.489 26.0001 147.462 24.9122 147.28 24.0001 146.968 23.5704 146.72 23.2638 146.474 22.9884 146.193 22.7364 145.847 22.5606 145.495 22.4552 145.105 21.6153 141.493 28.7696 139.911 34.9786 138.509ZM78.6057 148.437 78.4358 148.501 77.9417 148.761 77.2756 149.321 76.8596 149.706 76.469 150.228 76.0393 150.827 75.5901 151.564 75.2053 152.437 74.8206 153.458 74.469 154.612 74.1506 155.948 73.9084 157.454 73.7327 159.136 74.1506 159.839 74.5393 160.647 74.9963 161.735 75.4182 162.966 75.5569 163.657 75.6936 164.362 75.7991 165.102 75.8303 165.866 75.7991 166.642 75.6936 167.417 76.0842 167.169 76.5022 166.784 77.0354 166.147 77.5842 165.274 77.8694 164.681 78.1448 164.015 78.4358 163.272 78.678 162.399 78.8928 161.415 79.1018 160.36 79.4084 159.942 79.6897 159.415 79.9749 158.612 80.26 157.52 80.4319 156.118 80.469 155.31 80.469 154.403 80.4319 153.415 80.3206 152.294 80.1839 152.228 80.0413 152.052 79.8382 151.733 79.596 151.249 79.3108 150.579 78.9573 149.634 78.6057 148.436ZM41.5747 150.124 21.9287 157.593 26.5889 169.835 30.1006 168.495 26.7041 159.554 31.749 157.663 34.7334 165.523 38.2061 164.187 35.2217 156.329 39.3604 154.751 42.5909 163.308 46.0597 161.978 41.5753 150.124ZM187.865 153.663 187.453 153.696 187.058 153.839 186.679 154.087 186.289 154.472 185.97 154.966 185.695 155.624 185.443 156.444 185.271 157.421 184.919 160.011 184.886 160.224 184.886 159.978 185.025 158.153 184.507 157.982 183.974 157.878 183.689 157.845 183.441 157.878 183.201 157.982 182.986 158.114 182.853 158.372 182.783 158.681 182.75 159.103 182.853 159.632 183.025 160.29 183.31 161.066 183.546 161.247 184.216 161.702 185.376 162.323 186.992 163.026 187.486 163.208 188.007 163.275 188.607 163.241 188.888 163.175 189.128 163.026 189.333 162.817 189.552 162.505 189.685 162.12 189.767 161.665 189.767 161.066 189.652 160.362 190.107 159.515 190.498 158.681 190.882 157.663 191.025 157.136 191.097 156.614 191.13 156.12 191.097 155.624 190.955 155.163 190.734 154.784 190.394 154.472 189.904 154.263 189.722 154.151 189.273 153.942 188.634 153.73 188.244 153.663 187.865 153.663ZM210.166 154.157 209.545 154.261 208.906 154.403 208.345 154.612 207.785 154.894 207.224 155.206 206.73 155.624 206.279 156.085 205.818 156.575 205.433 157.173 205.082 157.8 204.769 158.464 204.527 159.173 204.318 159.878 204.209 160.536 204.142 161.206 204.175 161.833 204.242 162.433 204.39 163.026 204.593 163.593 204.845 164.12 205.191 164.642 205.582 165.103 206.033 165.554 206.56 165.978 207.16 166.362 207.785 166.708 208.494 167.021 209.467 167.378 210.418 167.554 211.297 167.587 212.133 167.45 212.945 167.169 213.715 166.747 214.414 166.181 215.078 165.45 218.277 161.527 218.523 161.273 218.841 161.064 219.144 160.888 219.468 160.751 219.81 160.679 220.172 160.679 220.519 160.718 220.875 160.818 221.398 161.097 221.847 161.487 222.168 161.905 222.343 162.433 222.453 163.027 222.414 163.691 222.277 164.394 221.996 165.202 221.64 165.911 221.216 166.505 220.722 166.954 220.199 167.312 219.611 167.484 218.941 167.515 218.238 167.45 217.468 167.235 216.132 170.429 216.941 170.714 217.711 170.917 218.49 171.027 219.183 171.093 219.886 171.06 220.519 170.993 221.144 170.851 221.744 170.648 222.304 170.357 222.877 169.972 223.359 169.548 223.822 169.06 224.277 168.538 224.656 167.911 225.041 167.202 225.398 166.466 225.679 165.691 225.849 164.96 225.986 164.251 226.058 163.56 226.058 162.884 225.986 162.257 225.849 161.624 225.634 161.03 225.365 160.47 225.013 159.909 224.58 159.415 224.129 158.96 223.607 158.497 223.007 158.112 222.343 157.734 221.64 157.421 220.486 157.03 219.959 156.927 219.468 156.855 218.974 156.855 218.49 156.894 218.023 156.997 217.572 157.14 216.836 157.487 216.211 157.876 215.644 158.372 215.078 158.993 211.781 163.136 211.539 163.411 211.259 163.624 210.978 163.763 210.66 163.872 210.314 163.905 209.994 163.905 209.648 163.872 209.287 163.724 208.797 163.488 208.379 163.136 208.105 162.751 207.884 162.257 207.785 161.736 207.785 161.175 207.884 160.575 208.105 159.943 208.412 159.279 208.797 158.718 209.23 158.294 209.714 157.982 210.281 157.8 210.908 157.734 211.578 157.8 212.308 157.943 213.611 154.749 212.908 154.47 212.209 154.294 211.505 154.189 210.841 154.157 210.166 154.157ZM55.7057 154.257 55.8209 154.581 56.0573 155.526 56.5846 156.896 57.3971 158.644 57.9577 159.593 58.5905 160.61 59.2877 161.626 60.1393 162.677 61.112 163.726 62.2058 164.749 63.3933 165.731 64.7292 166.677 73.4929 168.64 73.5261 168.255 73.3893 167.237 73.2468 166.54 73.0046 165.731 72.6198 164.852 72.1315 163.868 71.4225 162.886 70.5475 161.831 69.4987 160.819 68.8718 160.292 68.1628 159.808 67.4323 159.28 66.5866 158.786 65.7019 158.329 64.7566 157.88 63.7058 157.417 62.5964 156.995 61.3933 156.571 60.0964 156.226 59.9264 156.329 59.6452 156.368 59.1843 156.329 58.6237 156.153 57.86 155.802 56.9089 155.165 55.7058 154.257ZM174.286 155.241 173.94 155.314 173.544 155.489 173.131 155.736 172.719 156.187 172.499 156.444 172.374 156.79 172.225 157.138 172.147 157.593 172.083 158.083 172.116 158.644 172.186 158.72 172.258 158.82 172.225 158.989 172.147 159.171 171.911 159.347 171.516 159.593 170.889 159.874 170.438 159.978 169.983 160.153 169.52 160.474 169.313 160.681 169.135 160.923 169.038 161.177 168.956 161.523 168.928 161.874 168.993 162.292 169.165 162.747 169.456 163.275 169.593 163.589 169.692 163.941 169.729 164.331 169.659 164.78 169.593 164.989 169.456 165.237 169.241 165.452 168.956 165.622 168.647 165.798 168.223 165.941 167.768 166.111 167.345 166.325 166.889 166.638 166.471 167.095 166.29 167.38 166.157 167.698 166.087 168.046 166.087 168.435 166.12 168.886 166.257 169.376 166.329 169.655 166.329 169.941 166.29 170.321 166.19 170.782 165.944 171.206 165.593 171.655 165.069 172.046 164.602 172.431 164.223 172.843 163.899 173.446 163.845 173.755 163.772 174.146 163.811 174.503 163.899 174.921 164.124 175.337 164.471 175.761 164.927 176.212 165.52 176.661 165.911 177.157 166.718 178.349 167.696 179.96 168.12 180.767 168.471 181.542 168.784 181.157 169.202 180.767 169.768 180.349 170.505 179.927 171.456 179.581 171.977 179.437 172.544 179.366 173.165 179.333 173.835 179.333 174.538 179.267 175.204 179.124 175.977 178.839 176.358 178.63 176.682 178.388 176.989 178.07 177.204 177.685 177.374 177.261 177.452 176.734 177.374 176.146 177.243 175.448 177.067 174.986 176.956 174.503 176.923 173.98 176.956 173.661 177.067 173.376 177.204 173.134 177.45 172.882 177.72 172.679 178.11 172.497 178.61 172.355 179.171 172.288 179.831 172.288 180.391 172.216 180.71 172.112 180.995 171.97 181.27 171.804 181.452 171.552 181.583 171.237 181.661 170.849 181.583 170.353 181.413 169.798 181.089 169.167 180.638 168.398 180.434 168.189 180.253 167.907 180.11 167.55 180.046 167.134 180.11 166.638 180.391 166.083 180.606 165.765 180.886 165.452 181.198 164.925 181.452 164.331 181.616 163.589 181.616 163.243 181.583 162.819 181.485 162.435 181.309 162.089 180.995 161.737 180.606 161.38 180.077 161.099 179.419 160.819 179.337 160.853 179.1 160.89 178.71 160.786 178.149 160.505 177.804 160.259 177.407 159.913 176.989 159.45 176.534 158.89 176.05 158.193 175.522 157.351 174.917 156.368 174.286 155.241ZM81.0027 163.763 80.8543 163.868 80.6824 164.148 80.4734 164.681 80.3035 165.556 80.1219 166.853 80.0457 168.638 80.0847 171.062 80.1219 171.804 80.1551 172.573 80.3035 173.519 80.5125 174.607 80.782 175.683 81.2156 176.732 81.4793 177.189 81.8035 177.65 82.1551 177.749 82.5398 177.931 83.0301 178.177 83.5906 178.562 84.157 179.091 84.7176 179.716 85.2058 180.558 85.4539 179.755 85.6629 178.87 85.8699 177.683 86.0049 176.313 86.0049 174.803 85.9717 174 85.8233 173.198 85.6533 172.346 85.4444 171.543 84.8506 170.637 83.5147 168.461 82.042 165.905 81.4424 164.707 81.0576 163.756 80.9932 163.756ZM46.9757 164.083 44.4855 165.523 44.4855 165.519 28.7745 174.503 30.5655 177.575 37.6827 173.521 39.5733 176.773 39.8526 177.405 40.0284 177.933 40.0948 178.421 40.0616 178.872 39.8858 179.302 39.5733 179.681 39.1222 180.066 38.5616 180.454 35.753 182.175 34.919 182.735 33.962 183.544 35.9952 187.05 36.4522 186.769 36.5225 186.314 36.7374 185.929 37.1163 185.577 37.7491 185.187 40.7315 183.396 41.3643 182.984 41.8858 182.599 42.3155 182.175 42.6612 181.751 42.9034 181.329 43.085 180.835 43.1827 180.351 43.2276 179.79 43.2276 179.466 43.8213 179.823 44.4463 180.066 44.4854 180.107 45.1124 180.206 45.8213 180.239 46.5518 180.173 47.2881 179.997 48.0577 179.679 48.833 179.3 49.3604 178.976 49.8819 178.591 50.3116 178.212 50.7276 177.788 51.0791 177.337 51.3604 176.876 51.6397 176.388 51.8155 175.903 51.9912 175.413 52.0694 174.886 52.1026 174.358 52.1026 173.831 51.9912 173.337 51.8877 172.81 51.6787 172.288 51.4327 171.804 46.9757 164.083ZM202.706 165.204 200.557 168.671 206.557 176.321 196.913 174.64 194.704 178.245 208.975 179.958 215.707 184.097 217.608 181.015 210.905 176.909 202.705 165.204ZM45.5757 168.956 47.9234 173.062 48.1363 173.519 48.2476 173.98 48.2476 174.425 48.0992 174.886 47.8902 175.304 47.5387 175.683 47.1148 176.079 46.5875 176.425 46.0328 176.7 45.5367 176.843 45.0152 176.909 44.5641 176.876 44.4879 176.876 44.4879 176.878 44.1422 176.73 43.7516 176.527 43.4059 176.212 43.0875 175.796 40.734 171.734 44.4879 169.591 44.4879 169.589 45.5758 168.956ZM65.9527 171.552 66.3433 172.048 66.689 172.679 67.2828 174.218 67.7437 175.581 67.9195 176.175 69.0367 177.048 70.2008 177.829 71.3551 178.493 72.5465 179.12 73.7008 179.648 74.8668 180.109 77.0426 180.808 78.9332 181.296 80.4391 181.575 81.8063 181.784 81.2419 181.193 80.7184 180.56 79.7731 179.263 78.861 177.894 77.8786 176.493 77.0426 175.443 76.3395 174.675 75.8063 174.146 75.4274 173.8 75.1794 173.585 74.9645 173.521 73.6032 173.339 72.1305 173.103 70.6188 172.779 69.1793 172.433 66.8981 171.833 65.9528 171.552ZM87.8787 175.685 89.2088 177.191 90.4295 178.769 91.5565 180.318 92.535 181.784 93.9412 184.032 94.4686 184.944 95.9745 185.614 97.5194 186.099 99.0233 186.489 100.431 186.769 102.607 187.05 103.48 187.116 103.025 186.027 102.568 185.017 102.113 184.099 101.623 183.224 100.65 181.751 99.7323 180.593 98.8866 179.718 98.2167 179.087 97.6229 178.593 96.787 178.069 95.9413 177.575 95.1014 177.157 94.2596 176.806 92.6112 176.29 91.0936 175.976 89.8026 175.794 88.787 175.685 87.8788 175.685ZM162.27 178.736 162.024 178.769 161.738 178.872 161.463 179.048 161.145 179.329 160.83 179.581 160.506 179.823 160.199 180.208 159.875 180.669 159.699 181.193 159.699 181.505 159.699 181.823 159.809 182.138 159.957 182.523 160.227 182.599 160.506 182.736 160.83 182.945 161.106 183.193 161.281 183.544 161.326 183.72 161.326 183.962 161.248 184.204 161.145 184.45 161.209 184.874 161.385 185.253 161.672 185.677 161.881 185.853 162.155 186.066 162.512 186.198 162.897 186.308 163.391 186.38 163.947 186.38 164.584 186.308 165.321 186.165 165.457 185.929 165.805 185.329 166.227 184.413 166.408 183.857 166.508 183.226 166.541 182.763 166.508 182.275 166.442 181.753 166.26 181.263 166.16 181.05 166.014 180.874 165.805 180.769 165.596 180.698 165.348 180.698 165.072 180.802 164.897 180.835 164.512 180.802 164.266 180.736 164.026 180.656 163.823 180.447 163.604 180.128 163.459 179.783 163.295 179.462 163.004 179.111 162.69 178.87 162.483 178.831 162.278 178.798ZM146.274 180.239 145.889 180.284 145.537 180.388 145.213 180.591 144.971 180.839 144.729 181.085 144.377 181.646 144.092 182.273 143.043 182.8 142.246 183.124 141.641 183.327 141.223 183.394 140.944 183.361 140.801 183.327 140.696 183.224 139.965 182.833 139.295 182.564 138.701 182.382 138.207 182.273 137.75 182.273 137.332 182.312 137.014 182.415 136.69 182.564 136.487 182.734 136.272 182.943 135.992 183.294 135.823 183.718 130.244 188.099 129.305 188.769 128.485 189.29 127.715 189.675 127.051 189.956 126.424 190.136 125.903 190.202 125.436 190.241 125.018 190.169 124.666 190.105 124.424 189.956 124 189.675 123.754 189.433 123.688 189.329 122.776 188.802 121.727 188.175 120.522 187.366 118.534 186.027 116.67 184.945 114.95 184.07 113.334 183.394 111.868 182.915 110.532 182.564 109.346 182.345 108.256 182.273 107.307 182.245 106.465 182.312 105.762 182.454 105.202 182.597 104.465 182.872 104.186 182.982 104.575 183.576 104.959 184.097 105.383 184.593 105.795 185.087 106.784 185.894 107.795 186.626 108.883 187.218 109.971 187.714 111.055 188.099 112.147 188.423 113.203 188.66 114.149 188.835 115.791 189.005 116.955 189.081 117.34 189.081 118.461 189.187 119.407 189.329 120.215 189.46 120.846 189.642 121.407 189.818 121.819 189.99 122.172 190.169 122.424 190.351 122.561 190.554 122.672 190.699 122.776 191.011 122.731 191.187 122.7 191.29 121.758 191.818 120.846 192.378 120.034 192.978 119.264 193.611 118.594 194.269 117.967 194.908 116.913 196.165 116.143 197.326 115.588 198.238 115.159 199.078 116.637 199.566 117.049 198.414 117.582 197.429 118.176 196.523 118.809 195.714 119.446 195.011 120.143 194.378 120.809 193.851 121.479 193.39 122.7 192.73 123.721 192.312 124.385 192.066 124.633 191.994 124.909 191.751 125.161 191.572 125.678 191.396 126.166 191.363 126.639 191.46 127.024 191.609 127.299 191.779 127.545 191.994 128.211 192.279 128.809 192.626 129.366 193.044 129.893 193.499 130.348 194.027 130.766 194.554 131.469 195.642 131.997 196.654 132.387 197.538 132.663 198.347 134.377 197.599 134.135 197.148 133.854 196.62 133.163 195.611 132.311 194.521 131.426 193.538 129.93 191.923 129.26 191.29 129.338 190.9 129.475 190.587 129.645 190.378 129.893 190.203 130.133 190.06 130.459 189.988 131.047 189.954 131.645 190.027 132.168 190.136 132.663 190.312 133.502 190.839 134.278 191.187 134.872 191.363 135.399 191.427 135.778 191.427 136.108 191.363 136.305 191.29 136.729 191.72 137.151 192.033 137.514 192.281 137.778 192.411 138.069 192.451 138.305 192.451 138.514 192.378 138.702 192.281 138.944 191.994 139.12 191.636 139.223 191.29 139.504 191.076 139.784 190.933 140.278 190.839 140.735 190.9 141.114 191.044 141.471 191.291 141.713 191.505 141.922 191.753 142.377 192.517 142.84 193.121 143.329 193.539 143.78 193.781 144.235 193.918 144.698 193.957 145.12 193.884 145.498 193.748 145.889 193.539 146.241 193.324 146.764 192.83 147.147 192.412 147.291 192.242 147.643 191.636 148.032 191.324 148.413 191.154 148.731 191.154 149.038 191.22 149.247 191.363 149.473 191.505 150.164 192.169 150.725 192.626 151.252 192.939 151.676 193.121 152.022 193.187 152.34 193.154 152.582 193.044 152.764 192.869 152.907 192.626 153 192.378 153.116 191.851 153.116 191.291 153.116 191.011 153.116 190.808 153.176 190.626 153.297 190.521 153.567 190.312 153.879 190.242 154.237 190.242 154.516 190.242 154.83 190.312 155.77 189.751 156.479 189.291 157.006 188.835 157.385 188.175 157.848 187.466 158.409 186.769 159.006 186.13 159.991 185.121 160.451 184.697 158.791 185.121 157.672 185.367 156.94 185.439 156.551 185.367 156.407 185.257 156.407 185.121 156.551 184.945 156.127 184.07 155.703 183.361 155.248 182.833 154.83 182.455 154.44 182.173 154.028 181.998 153.643 181.921 153.297 181.921 152.934 181.998 152.621 182.103 152.127 182.382 151.774 182.63 151.676 182.734 150.555 182.873 149.78 182.833 149.246 182.734 148.906 182.564 148.768 182.382 148.731 182.212 148.731 182.037 148.164 181.328 147.643 180.839 147.147 180.488 146.692 180.316 146.274 180.24ZM193.973 180.984 193.342 181.05 192.748 181.193 192.143 181.396 191.549 181.683 190.957 181.995 190.397 182.419 189.867 182.913 189.336 183.435 188.857 184.034 188.461 184.595 188.115 185.189 187.834 185.788 187.664 186.376 187.516 187.019 187.455 187.607 187.455 188.206 187.549 188.804 187.697 189.398 187.9 189.958 188.176 190.552 188.539 191.112 188.951 191.679 189.451 192.212 190.012 192.728 190.812 193.394 191.615 193.849 192.467 194.195 193.303 194.343 194.148 194.376 195.027 194.195 195.902 193.888 196.775 193.437 201.062 190.804 201.369 190.628 201.717 190.519 202.068 190.446 202.457 190.446 202.811 190.519 203.123 190.628 203.441 190.761 203.723 190.98 204.144 191.431 204.426 191.921 204.596 192.452 204.596 193.009 204.496 193.57 204.244 194.195 203.865 194.839 203.338 195.464 202.771 196.064 202.184 196.487 201.578 196.724 200.99 196.872 200.348 196.833 199.721 196.691 199.062 196.372 198.391 195.888 196.111 198.521 196.775 199.009 197.445 199.46 198.111 199.818 198.771 200.13 199.408 200.345 200.072 200.476 200.705 200.548 201.336 200.515 201.969 200.448 202.602 200.306 203.193 200.058 203.793 199.745 204.393 199.361 204.986 198.905 205.584 198.382 206.144 197.778 206.629 197.185 207.096 196.552 207.441 195.927 207.717 195.288 207.932 194.657 208.107 194.03 208.178 193.394 208.178 192.761 208.107 192.134 207.932 191.503 207.717 190.903 207.441 190.277 207.096 189.71 206.672 189.118 206.144 188.558 205.584 187.991 204.639 187.255 204.178 186.98 203.723 186.771 203.271 186.589 202.811 186.486 202.32 186.419 201.832 186.419 201.062 186.486 200.32 186.661 199.623 186.946 198.887 187.364 194.391 190.167 194.072 190.31 193.764 190.415 193.412 190.485 193.1 190.485 192.775 190.415 192.467 190.31 192.143 190.134 191.869 189.892 191.478 189.501 191.197 189.046 191.066 188.558 191.027 188.062 191.1 187.534 191.269 186.98 191.588 186.458 191.973 185.931 192.5 185.403 193.06 185.019 193.588 184.732 194.182 184.628 194.748 184.628 195.336 184.765 195.969 185.05 196.605 185.435 198.918 182.837 198.32 182.38 197.727 181.956 197.1 181.611 196.496 181.364 195.863 181.159 195.236 181.017 194.6 180.984 193.973 180.984ZM58.2727 181.54 52.1399 184.316 52.1399 184.314 38.3179 190.486 40.8023 193.392 44.8355 191.54 48.9468 196.343 46.3863 199.952 48.9468 202.931 52.1402 198.128 52.1402 198.124 60.9644 184.726 58.273 181.54ZM87.5247 184.558 87.2767 184.595 87.1771 184.661 87.14 184.7 80.3314 185.189 80.8958 185.546 81.4837 186.07 82.0559 186.661 82.5833 187.294 83.4192 188.388 83.7434 188.839 84.7865 189.503 85.7767 190.064 86.7493 190.482 87.6673 190.839 88.5404 191.081 89.3529 191.261 90.1283 191.361 90.8275 191.394 92.0521 191.361 92.9583 191.224 93.5247 191.081 93.7337 191.042 96.5696 190.103 98.8216 189.503 100.257 189.185 100.784 189.079 99.6243 188.909 98.3664 188.624 97.091 188.273 95.9094 187.894 94.0129 187.191 93.2395 186.904 91.3157 185.892 89.804 185.222 88.7552 184.8 88.013 184.595 87.5247 184.558ZM56.0307 186.167 52.1401 191.718 51.0835 193.189 48.2495 189.892 52.1401 188.029 52.1401 188.031 56.0307 186.167ZM65.8178 189.89 52.5948 206.195 62.0968 213.873 64.4874 210.933 57.8214 205.537 68.6534 192.166 65.8175 189.89ZM105.412 190.064 104.009 190.277 102.752 190.552 101.625 190.903 100.609 191.261 99.6969 191.679 98.9215 192.097 98.2184 192.558 97.6247 192.976 97.1364 193.394 96.7067 193.816 96.1247 194.519 95.7672 194.97 95.6637 195.185 96.9977 195.464 98.3278 195.575 99.6247 195.607 100.855 195.542 101.906 195.431 102.752 195.321 103.482 195.185 106.918 194.624 109.094 194.31 110.533 194.195 110.885 193.612 111.412 193.009 112 192.415 112.638 191.821 113.726 190.903 114.181 190.552 111.929 190.519 110.039 190.486 107.345 190.31 105.867 190.134 105.412 190.064ZM179.555 193.749 169.075 200.905 180.891 218.225 191.727 210.862 189.623 207.774 181.698 213.149 178.682 208.692 185.627 203.954 183.518 200.872 176.582 205.602 174.082 201.948 181.664 196.833 179.555 193.749ZM81.6718 201.499 72.8964 220.573 76.1269 222.052 79.5624 214.583 83.0019 216.194 83.5957 216.507 84.0508 216.858 84.4023 217.204 84.6171 217.6 84.6836 218.056 84.6836 218.54 84.5468 219.106 84.2929 219.737 83.0019 222.788 82.6504 223.733 82.3652 224.925 85.0019 226.157 85.0019 226.159 86.0195 226.616 86.2226 226.122 86.0508 225.698 85.9863 225.274 86.084 224.753 86.3652 224.083 87.7656 220.895 88.0527 220.192 88.2656 219.56 88.3652 218.999 88.3984 218.438 88.3652 217.944 88.2285 217.46 88.0137 217.005 87.7012 216.544 87.5625 216.263 88.2285 216.196 88.8594 216.06 89.4863 215.769 90.0859 215.39 90.6504 214.894 91.1348 214.333 91.5918 213.636 92.0078 212.866 92.2617 212.3 92.4434 211.708 92.5801 211.102 92.6895 210.542 92.6895 209.948 92.6895 209.433 92.6133 208.866 92.4707 208.376 92.2949 207.845 92.086 207.388 91.7988 206.936 91.4863 206.548 91.1348 206.157 90.7168 205.806 90.2617 205.491 89.7774 205.251 85.002 203.079 85.002 203.075 81.6719 201.499ZM168.053 201.568 164.656 203.15 168.025 219.17 157.914 206.338 154.409 207.992 168.581 224.506 171.668 223.072 168.053 201.568ZM83.3808 206.302 85.0019 207.077 85.0019 207.075 87.6679 208.3 88.0898 208.542 88.4414 208.866 88.7226 209.251 88.8593 209.673 88.9257 210.157 88.8925 210.691 88.7558 211.251 88.5078 211.845 88.2285 212.372 87.8808 212.796 87.5234 213.148 87.1406 213.384 86.6835 213.527 86.2226 213.56 85.7773 213.493 85.2773 213.318 85.0019 213.212 85.0019 213.216 81.039 211.386 83.3808 206.302ZM96.5698 208.054 90.8589 228.255 103.455 231.843 104.467 228.222 95.2732 225.628 96.7459 220.401 104.851 222.72 105.867 219.138 97.7615 216.862 98.9607 212.581 107.763 215.071 108.742 211.532 96.5699 208.054ZM149.711 209.49 149.182 209.568 148.621 209.699 148.342 209.814 140.097 212.238 146.06 232.361 148.342 231.697 148.342 231.699 149.474 231.351 148.342 227.626 148.342 227.624 147.115 223.486 148.342 223.14 150.76 222.404 151.424 222.267 151.99 222.195 152.474 222.228 152.908 222.404 153.26 222.685 153.568 223.073 153.842 223.558 154.09 224.228 155.111 227.345 155.463 228.333 156.062 229.384 159.926 228.257 159.744 227.696 159.322 227.558 159.008 227.234 158.762 226.784 158.519 226.124 157.469 222.788 157.211 222.085 156.941 221.452 156.656 220.964 156.305 220.54 155.953 220.189 155.535 219.915 155.078 219.695 154.517 219.525 154.238 219.458 154.693 218.97 155.078 218.404 155.359 217.81 155.574 217.107 155.638 216.364 155.638 215.601 155.574 214.788 155.359 213.952 155.144 213.347 154.902 212.792 154.617 212.271 154.305 211.777 153.953 211.32 153.568 210.935 153.15 210.577 152.726 210.271 152.271 209.984 151.775 209.781 151.287 209.632 150.76 209.523 150.269 209.489 149.711 209.489ZM115.688 212.234 115.03 212.267 114.36 212.37 113.76 212.507 113.172 212.761 112.639 212.997 112.149 213.349 111.7 213.74 111.27 214.195 110.885 214.689 110.561 215.212 110.297 215.837 110.039 216.476 109.836 217.173 109.694 217.949 109.588 218.964 109.649 219.943 109.836 220.827 110.149 221.591 110.606 222.333 111.205 222.96 111.93 223.521 112.821 224.015 117.342 226.191 117.651 226.363 117.936 226.576 118.178 226.857 118.354 227.169 118.536 227.494 118.596 227.839 118.666 228.187 118.629 228.533 118.497 229.132 118.217 229.626 117.87 230.044 117.414 230.363 116.842 230.572 116.217 230.708 115.481 230.708 114.639 230.642 113.864 230.466 113.205 230.187 112.639 229.835 112.178 229.423 111.87 228.863 111.655 228.257 111.584 227.521 111.622 226.708 108.188 226.191 108.112 227.033 108.112 227.839 108.143 228.605 108.26 229.312 108.44 229.984 108.676 230.609 108.957 231.169 109.309 231.699 109.727 232.187 110.182 232.611 110.709 232.99 111.303 233.347 111.93 233.626 112.639 233.902 113.409 234.077 114.217 234.253 115.03 234.326 115.76 234.357 116.502 234.326 117.194 234.226 117.832 234.044 118.463 233.835 119.02 233.556 119.547 233.204 120.035 232.82 120.493 232.363 120.877 231.841 121.235 231.275 121.547 230.642 121.789 229.984 121.965 229.242 122.147 228.472 122.25 227.275 122.174 226.224 122.075 225.73 121.899 225.306 121.696 224.857 121.438 224.472 120.948 223.839 120.393 223.312 119.793 222.857 119.057 222.472 114.248 220.224 113.936 220.048 113.7 219.839 113.448 219.597 113.272 219.318 113.172 218.997 113.096 218.685 113.057 218.339 113.096 217.949 113.239 217.421 113.448 216.964 113.793 216.542 114.184 216.261 114.678 216.019 115.233 215.882 115.826 215.837 116.502 215.915 117.227 216.058 117.871 216.3 118.354 216.613 118.778 217.037 119.09 217.531 119.305 218.119 119.408 218.788 119.408 219.525 122.844 220.048 122.914 219.318 122.948 218.576 122.881 217.876 122.778 217.206 122.602 216.579 122.393 215.982 122.075 215.421 121.76 214.894 121.338 214.404 120.875 213.986 120.393 213.558 119.832 213.212 119.239 212.931 118.596 212.689 117.903 212.476 117.166 212.337 116.393 212.267 115.688 212.234ZM137.819 212.763 125.223 214.478 128.108 235.271 141.083 233.48 140.588 229.771 131.126 231.062 130.389 225.699 138.704 224.577 138.21 220.896 129.862 222.05 129.262 217.665 138.307 216.411 137.819 212.763ZM149.567 213.283 150.03 213.314 150.479 213.425 150.864 213.634 151.221 213.952 151.536 214.37 151.815 214.892 152.024 215.492 152.166 216.089 152.206 216.613 152.127 217.107 151.991 217.562 151.776 217.947 151.469 218.261 151.084 218.54 150.584 218.722 148.342 219.425 146.133 220.089 144.518 214.722 148.342 213.605 148.342 213.607 149.04 213.386 149.567 213.283Z" transform="matrix(0.8 0 0 -0.8 406.17 425.25)"/></g></g></svg>